<svg width="17" height="20" viewBox="0 0 17 20" fill="none" xmlns="http://www.w3.org/2000/svg">
<path d="M15.5 19C15.0833 19 14.7292 18.8542 14.4375 18.5625C14.1458 18.2708 14 17.9167 14 17.5C14 17.0833 14.1458 16.7292 14.4375 16.4375C14.7292 16.1458 15.0833 16 15.5 16C15.9167 16 16.2708 16.1458 16.5625 16.4375C16.8542 16.7292 17 17.0833 17 17.5C17 17.9167 16.8542 18.2708 16.5625 18.5625C16.2708 18.8542 15.9167 19 15.5 19ZM6 20C4.33333 20 2.91667 19.8042 1.75 19.4125C0.583333 19.0208 0 18.55 0 18C0 17.6167 0.275 17.275 0.825 16.975C1.375 16.675 2.1 16.4333 3 16.25V18H5V0L13 3.9L7 7V16.05C8.43333 16.1333 9.625 16.3542 10.575 16.7125C11.525 17.0708 12 17.5 12 18C12 18.55 11.4167 19.0208 10.25 19.4125C9.08333 19.8042 7.66667 20 6 20Z" fill="#948A83"/>
</svg>
