<svg width="24" height="24" viewBox="0 0 24 24" fill="none" xmlns="http://www.w3.org/2000/svg">
<mask id="mask0_359_1444" style="mask-type:alpha" maskUnits="userSpaceOnUse" x="0" y="0" width="24" height="24">
<rect width="24" height="24" fill="#D9D9D9"/>
</mask>
<g mask="url(#mask0_359_1444)">
<path d="M12 22C10.6167 22 9.31667 21.7375 8.1 21.2125C6.88333 20.6875 5.825 19.9709 4.925 19.0625C4.025 18.1542 3.3125 17.0917 2.7875 15.875C2.2625 14.6584 2 13.3667 2 12C2 9.38338 2.86667 7.13338 4.6 5.25005C6.33333 3.36672 8.46667 2.30005 11 2.05005V5.05005C9.28333 5.28338 7.85417 6.05422 6.7125 7.36255C5.57083 8.67088 5 10.2167 5 12C5 13.9334 5.68333 15.5834 7.05 16.95C8.41667 18.3167 10.0667 19 12 19C13.1 19 14.1292 18.7667 15.0875 18.3C16.0458 17.8334 16.85 17.2 17.5 16.4L20.1 17.9C19.2 19.15 18.0417 20.1459 16.625 20.8875C15.2083 21.6292 13.6667 22 12 22ZM11 16V13H8V11H11V8.00005H13V11H16V13H13V16H11ZM21.15 16.05L18.55 14.55C18.7 14.15 18.8125 13.7375 18.8875 13.3125C18.9625 12.8875 19 12.45 19 12C19 10.2167 18.4292 8.67088 17.2875 7.36255C16.1458 6.05422 14.7167 5.28338 13 5.05005V2.05005C15.5333 2.30005 17.6667 3.36672 19.4 5.25005C21.1333 7.13338 22 9.38338 22 12C22 12.7334 21.9333 13.4417 21.8 14.125C21.6667 14.8084 21.45 15.45 21.15 16.05Z" fill="#948A83"/>
</g>
</svg>
