<svg width="24" height="24" viewBox="0 0 24 24" fill="none" xmlns="http://www.w3.org/2000/svg">
<mask id="mask0_324_1467" style="mask-type:alpha" maskUnits="userSpaceOnUse" x="0" y="0" width="24" height="24">
<rect width="24" height="24" fill="#D9D9D9"/>
</mask>
<g mask="url(#mask0_324_1467)">
<path d="M11.0249 21.9503C8.45824 21.7003 6.31657 20.6253 4.5999 18.7253C2.88324 16.8253 2.0249 14.5836 2.0249 12.0003C2.0249 9.41696 2.88324 7.17529 4.5999 5.27529C6.31657 3.37529 8.45824 2.30029 11.0249 2.05029V5.05029C9.29157 5.28363 7.85824 6.05863 6.7249 7.37529C5.59157 8.69196 5.0249 10.2336 5.0249 12.0003C5.0249 13.767 5.59157 15.3086 6.7249 16.6253C7.85824 17.942 9.29157 18.717 11.0249 18.9503V21.9503ZM13.0249 21.9503V18.9503C14.5916 18.7503 15.9166 18.1003 16.9999 17.0003C18.0832 15.9003 18.7416 14.567 18.9749 13.0003H21.9749C21.7416 15.3836 20.7874 17.4128 19.1124 19.0878C17.4374 20.7628 15.4082 21.717 13.0249 21.9503ZM18.9749 11.0003C18.7416 9.43363 18.0832 8.10029 16.9999 7.00029C15.9166 5.90029 14.5916 5.25029 13.0249 5.05029V2.05029C15.4082 2.28363 17.4374 3.23779 19.1124 4.91279C20.7874 6.58779 21.7416 8.61696 21.9749 11.0003H18.9749Z" fill="#1C1B1F"/>
</g>
</svg>
