<svg width="36" height="36" viewBox="0 0 36 36" fill="none" xmlns="http://www.w3.org/2000/svg">
<mask id="mask0_217_579" style="mask-type:alpha" maskUnits="userSpaceOnUse" x="0" y="0" width="36" height="36">
<rect width="36" height="36" fill="#D9D9D9"/>
</mask>
<g mask="url(#mask0_217_579)">
<path d="M7.5 31.5C6.675 31.5 5.96875 31.2063 5.38125 30.6188C4.79375 30.0312 4.5 29.325 4.5 28.5V24H7.5V28.5H28.5V10.5H7.5V15H4.5V7.5C4.5 6.675 4.79375 5.96875 5.38125 5.38125C5.96875 4.79375 6.675 4.5 7.5 4.5H28.5C29.325 4.5 30.0312 4.79375 30.6188 5.38125C31.2063 5.96875 31.5 6.675 31.5 7.5V28.5C31.5 29.325 31.2063 30.0312 30.6188 30.6188C30.0312 31.2063 29.325 31.5 28.5 31.5H7.5ZM17.25 26.25L15.15 24.15L18.2625 21H4.5V18H18.2625L15.15 14.85L17.25 12.75L24 19.5L17.25 26.25Z" fill="#F4F0EE"/>
</g>
</svg>
