<svg width="24" height="24" viewBox="0 0 24 24" fill="none" xmlns="http://www.w3.org/2000/svg">
<mask id="mask0_352_1453" style="mask-type:alpha" maskUnits="userSpaceOnUse" x="0" y="0" width="24" height="24">
<rect width="24" height="24" fill="#D9D9D9"/>
</mask>
<g mask="url(#mask0_352_1453)">
<path d="M12 16C12.2833 16 12.5292 15.8958 12.7375 15.6875C12.9458 15.4792 13.05 15.2333 13.05 14.95C13.05 14.6667 12.9458 14.4208 12.7375 14.2125C12.5292 14.0042 12.2833 13.9 12 13.9C11.7167 13.9 11.4708 14.0042 11.2625 14.2125C11.0542 14.4208 10.95 14.6667 10.95 14.95C10.95 15.2333 11.0542 15.4792 11.2625 15.6875C11.4708 15.8958 11.7167 16 12 16ZM11.25 12.9H12.75C12.75 12.5833 12.7625 12.3333 12.7875 12.15C12.8125 11.9667 12.85 11.8167 12.9 11.7C12.9667 11.5667 13.0625 11.4292 13.1875 11.2875C13.3125 11.1458 13.5167 10.9333 13.8 10.65C14.15 10.3 14.4125 9.95 14.5875 9.6C14.7625 9.25 14.85 8.9 14.85 8.55C14.85 7.76667 14.5917 7.14583 14.075 6.6875C13.5583 6.22917 12.8667 6 12 6C11.3167 6 10.7167 6.19167 10.2 6.575C9.68333 6.95833 9.33333 7.46667 9.15 8.1L10.5 8.65C10.6167 8.26667 10.8083 7.97083 11.075 7.7625C11.3417 7.55417 11.65 7.45 12 7.45C12.4 7.45 12.725 7.55833 12.975 7.775C13.225 7.99167 13.35 8.26667 13.35 8.6C13.35 8.88333 13.2875 9.12917 13.1625 9.3375C13.0375 9.54583 12.8167 9.78333 12.5 10.05C12.2167 10.2833 11.9917 10.4958 11.825 10.6875C11.6583 10.8792 11.5333 11.0667 11.45 11.25C11.3667 11.4167 11.3125 11.6208 11.2875 11.8625C11.2625 12.1042 11.25 12.45 11.25 12.9ZM12 22C9.31667 19.7167 7.3125 17.5958 5.9875 15.6375C4.6625 13.6792 4 11.8667 4 10.2C4 7.7 4.80417 5.70833 6.4125 4.225C8.02083 2.74167 9.88333 2 12 2C14.1167 2 15.9792 2.74167 17.5875 4.225C19.1958 5.70833 20 7.7 20 10.2C20 11.8667 19.3375 13.6792 18.0125 15.6375C16.6875 17.5958 14.6833 19.7167 12 22Z" fill="#948A83"/>
</g>
</svg>
