<svg width="24" height="24" viewBox="0 0 24 24" fill="none" xmlns="http://www.w3.org/2000/svg">
<mask id="mask0_352_1489" style="mask-type:alpha" maskUnits="userSpaceOnUse" x="0" y="0" width="24" height="24">
<rect width="24" height="24" fill="#D9D9D9"/>
</mask>
<g mask="url(#mask0_352_1489)">
<path d="M10.9998 23.0001V21.0001C8.91647 20.7668 7.12897 19.9043 5.6373 18.4126C4.14564 16.9209 3.28314 15.1334 3.0498 13.0501H1.0498V11.0501H3.0498C3.28314 8.96676 4.14564 7.17926 5.6373 5.6876C7.12897 4.19593 8.91647 3.33343 10.9998 3.1001V1.1001H12.9998V3.1001C15.0831 3.33343 16.8706 4.19593 18.3623 5.6876C19.854 7.17926 20.7165 8.96676 20.9498 11.0501H22.9498V13.0501H20.9498C20.7165 15.1334 19.854 16.9209 18.3623 18.4126C16.8706 19.9043 15.0831 20.7668 12.9998 21.0001V23.0001H10.9998ZM11.9998 19.0501C13.9331 19.0501 15.5831 18.3668 16.9498 17.0001C18.3165 15.6334 18.9998 13.9834 18.9998 12.0501C18.9998 10.1168 18.3165 8.46676 16.9498 7.1001C15.5831 5.73343 13.9331 5.0501 11.9998 5.0501C10.0665 5.0501 8.41647 5.73343 7.0498 7.1001C5.68314 8.46676 4.9998 10.1168 4.9998 12.0501C4.9998 13.9834 5.68314 15.6334 7.0498 17.0001C8.41647 18.3668 10.0665 19.0501 11.9998 19.0501Z" fill="#948A83"/>
</g>
</svg>
