<svg width="500" height="312" viewBox="0 0 500 312" fill="none" xmlns="http://www.w3.org/2000/svg">
<g clip-path="url(#clip0_215_231)">
<g clip-path="url(#clip1_215_231)">
<g clip-path="url(#clip2_215_231)">
<g clip-path="url(#clip3_215_231)">
<g clip-path="url(#clip4_215_231)">
<g clip-path="url(#clip5_215_231)">
<g clip-path="url(#clip6_215_231)">
<g clip-path="url(#clip7_215_231)">
<g clip-path="url(#clip8_215_231)">
<g clip-path="url(#clip9_215_231)">
<path d="M61.0141 146.983H50.4785V101.416H69.9437C72.1279 101.416 74.1323 101.853 75.9567 102.725C77.7726 103.607 79.3444 104.783 80.672 106.255C81.9997 107.736 83.0276 109.396 83.7556 111.235C84.4837 113.075 84.8477 114.958 84.8477 116.883C84.8477 119.493 84.2396 121.975 83.0233 124.328C81.7984 126.681 80.1067 128.594 77.9482 130.066C75.7811 131.546 73.22 132.286 70.2649 132.286H61.0141V146.983ZM61.0141 110.658V123.109H69.6225C70.4362 123.109 71.1857 122.873 71.871 122.403C72.5562 121.932 73.113 121.226 73.5412 120.285C73.9695 119.343 74.1836 118.188 74.1836 116.819C74.1836 115.407 73.9395 114.239 73.4513 113.315C72.9545 112.399 72.3335 111.728 71.5883 111.3C70.8345 110.872 70.0508 110.658 69.237 110.658H61.0141ZM111.058 112.84V122.082C108.574 122.082 106.326 122.475 104.313 123.263C102.3 124.058 100.844 125.226 99.9445 126.767V146.983H89.6659V113.289H99.1094V120.092C100.266 117.825 101.765 116.049 103.606 114.765C105.448 113.482 107.375 112.819 109.388 112.776C109.859 112.776 110.21 112.776 110.442 112.776C110.681 112.776 110.887 112.797 111.058 112.84ZM131.423 147.625C128.553 147.625 125.992 147.154 123.74 146.213C121.495 145.272 119.602 143.988 118.061 142.362C116.519 140.736 115.35 138.875 114.553 136.779C113.765 134.682 113.371 132.479 113.371 130.168C113.371 127.815 113.765 125.59 114.553 123.494C115.35 121.397 116.519 119.536 118.061 117.91C119.602 116.284 121.495 115.001 123.74 114.059C125.992 113.118 128.553 112.647 131.423 112.647C134.292 112.647 136.836 113.118 139.055 114.059C141.29 115.001 143.179 116.284 144.721 117.91C146.263 119.536 147.44 121.397 148.254 123.494C149.068 125.59 149.475 127.815 149.475 130.168C149.475 132.479 149.068 134.682 148.254 136.779C147.44 138.875 146.263 140.736 144.721 142.362C143.179 143.988 141.29 145.272 139.055 146.213C136.836 147.154 134.292 147.625 131.423 147.625ZM123.907 130.168C123.907 131.922 124.236 133.463 124.896 134.789C125.564 136.115 126.455 137.142 127.568 137.87C128.682 138.597 129.967 138.961 131.423 138.961C132.836 138.961 134.108 138.584 135.239 137.831C136.378 137.087 137.269 136.051 137.911 134.725C138.554 133.399 138.875 131.88 138.875 130.168C138.875 128.414 138.554 126.874 137.911 125.547C137.269 124.221 136.378 123.194 135.239 122.467C134.108 121.739 132.836 121.376 131.423 121.376C129.967 121.376 128.682 121.739 127.568 122.467C126.455 123.194 125.564 124.221 124.896 125.547C124.236 126.874 123.907 128.414 123.907 130.168ZM152.738 159.947C151.068 159.947 149.453 159.678 147.894 159.139C146.327 158.608 144.922 157.808 143.68 156.738L147.984 149.743C148.413 150.213 148.939 150.556 149.565 150.77C150.181 150.984 150.811 151.09 151.453 151.09C152.096 151.09 152.674 150.954 153.188 150.68C153.702 150.397 154.109 149.978 154.408 149.422C154.708 148.866 154.858 148.245 154.858 147.561V113.289H165.137V146.791C165.137 149.358 164.593 151.638 163.505 153.632C162.409 155.617 160.931 157.166 159.072 158.279C157.205 159.391 155.094 159.947 152.738 159.947ZM165.137 109.438H154.858V100.133H165.137V109.438ZM188.264 147.625C185.394 147.625 182.846 147.163 180.619 146.239C178.392 145.323 176.499 144.074 174.94 142.491C173.373 140.907 172.182 139.076 171.368 136.997C170.555 134.926 170.148 132.757 170.148 130.489C170.148 127.237 170.867 124.272 172.306 121.594C173.737 118.924 175.801 116.763 178.499 115.112C181.197 113.469 184.452 112.647 188.264 112.647C192.075 112.647 195.322 113.46 198.003 115.086C200.675 116.712 202.718 118.839 204.131 121.466C205.545 124.101 206.251 126.959 206.251 130.04C206.251 130.639 206.221 131.225 206.161 131.798C206.093 132.38 206.037 132.885 205.994 133.313H181.069C181.197 134.81 181.617 136.073 182.328 137.1C183.03 138.126 183.938 138.905 185.052 139.436C186.165 139.975 187.343 140.244 188.585 140.244C190.127 140.244 191.574 139.881 192.928 139.153C194.273 138.426 195.202 137.442 195.716 136.201L204.453 138.64C203.596 140.394 202.388 141.943 200.829 143.286C199.262 144.638 197.42 145.699 195.305 146.47C193.18 147.24 190.833 147.625 188.264 147.625ZM180.812 127.023H195.459C195.288 125.612 194.881 124.379 194.238 123.327C193.596 122.283 192.739 121.47 191.669 120.888C190.598 120.315 189.42 120.028 188.135 120.028C186.808 120.028 185.621 120.315 184.576 120.888C183.523 121.47 182.675 122.283 182.032 123.327C181.39 124.379 180.983 125.612 180.812 127.023ZM227.066 147.625C224.196 147.625 221.648 147.154 219.421 146.213C217.194 145.272 215.297 143.988 213.729 142.362C212.17 140.736 210.984 138.875 210.17 136.779C209.356 134.682 208.95 132.457 208.95 130.104C208.95 127.023 209.665 124.157 211.095 121.504C212.534 118.851 214.603 116.712 217.301 115.086C219.999 113.46 223.254 112.647 227.066 112.647C230.92 112.647 234.184 113.469 236.856 115.112C239.537 116.763 241.541 118.916 242.869 121.568L232.847 124.585C232.205 123.558 231.378 122.766 230.368 122.21C229.366 121.654 228.243 121.376 227.001 121.376C225.588 121.376 224.312 121.739 223.173 122.467C222.042 123.194 221.143 124.2 220.475 125.483C219.815 126.767 219.485 128.307 219.485 130.104C219.485 131.858 219.828 133.399 220.513 134.725C221.198 136.051 222.098 137.087 223.211 137.831C224.325 138.584 225.588 138.961 227.001 138.961C227.858 138.961 228.659 138.82 229.404 138.537C230.158 138.263 230.843 137.87 231.46 137.356C232.085 136.843 232.569 136.265 232.912 135.623L242.933 138.704C242.12 140.415 240.95 141.943 239.426 143.286C237.91 144.638 236.124 145.699 234.068 146.47C232.012 147.24 229.678 147.625 227.066 147.625ZM267.409 137.035L269.401 145.186C268.459 145.571 267.418 145.956 266.279 146.341C265.148 146.726 263.962 147.039 262.72 147.278C261.478 147.509 260.257 147.625 259.058 147.625C257.345 147.625 255.769 147.334 254.33 146.752C252.899 146.179 251.764 145.229 250.925 143.902C250.094 142.576 249.679 140.822 249.679 138.64V121.055H245.375V113.289H249.679V102.571H259.957V113.289H266.831V121.055H259.957V135.11C259.957 136.222 260.236 137.023 260.792 137.51C261.349 138.007 262.056 138.255 262.912 138.255C263.641 138.255 264.42 138.126 265.251 137.87C266.09 137.613 266.81 137.335 267.409 137.035Z" fill="#F13D5E"/>
<path d="M293.106 147.304C290.108 147.304 287.282 146.739 284.626 145.61C281.971 144.472 279.637 142.863 277.624 140.783C275.611 138.713 274.039 136.252 272.909 133.403C271.769 130.562 271.2 127.387 271.2 123.879C271.2 120.713 271.778 117.76 272.934 115.022C274.091 112.284 275.697 109.866 277.752 107.77C279.808 105.673 282.219 104.035 284.986 102.854C287.744 101.681 290.729 101.095 293.941 101.095C298.138 101.095 301.843 101.994 305.055 103.791C308.267 105.588 310.644 108.005 312.186 111.043L304.348 116.947C303.32 114.936 301.834 113.353 299.89 112.198C297.937 111.043 295.826 110.465 293.556 110.465C291.843 110.465 290.271 110.816 288.84 111.518C287.401 112.228 286.159 113.212 285.114 114.47C284.061 115.737 283.256 117.204 282.699 118.873C282.142 120.541 281.864 122.338 281.864 124.264C281.864 126.232 282.164 128.05 282.763 129.719C283.363 131.388 284.198 132.829 285.269 134.045C286.339 135.268 287.616 136.222 289.097 136.907C290.571 137.592 292.207 137.934 294.005 137.934C296.19 137.934 298.28 137.386 300.275 136.291C302.263 135.204 304.091 133.591 305.762 131.452V141.849C302.121 145.486 297.903 147.304 293.106 147.304ZM305.119 146.983V130.81H296.254V123.173H313.856V146.983H305.119ZM336.084 147.625C333.214 147.625 330.666 147.163 328.439 146.239C326.212 145.323 324.315 144.074 322.747 142.491C321.188 140.907 320.002 139.076 319.188 136.997C318.374 134.926 317.968 132.757 317.968 130.489C317.968 127.237 318.683 124.272 320.113 121.594C321.552 118.924 323.621 116.763 326.319 115.112C329.017 113.469 332.272 112.647 336.084 112.647C339.895 112.647 343.137 113.46 345.81 115.086C348.491 116.712 350.538 118.839 351.951 121.466C353.365 124.101 354.071 126.959 354.071 130.04C354.071 130.639 354.037 131.225 353.969 131.798C353.909 132.38 353.857 132.885 353.814 133.313H328.889C329.017 134.81 329.433 136.073 330.135 137.1C330.846 138.126 331.758 138.905 332.872 139.436C333.985 139.975 335.163 140.244 336.405 140.244C337.947 140.244 339.39 139.881 340.735 139.153C342.088 138.426 343.022 137.442 343.536 136.201L352.273 138.64C351.416 140.394 350.204 141.943 348.636 143.286C347.078 144.638 345.236 145.699 343.112 146.47C340.996 147.24 338.653 147.625 336.084 147.625ZM328.632 127.023H343.279C343.107 125.612 342.701 124.379 342.058 123.327C341.416 122.283 340.559 121.47 339.488 120.888C338.418 120.315 337.24 120.028 335.955 120.028C334.628 120.028 333.437 120.315 332.383 120.888C331.338 121.47 330.495 122.283 329.852 123.327C329.21 124.379 328.803 125.612 328.632 127.023ZM391.267 125.419V146.983H380.989V128.05C380.989 125.825 380.569 124.208 379.729 123.198C378.899 122.197 377.798 121.697 376.427 121.697C375.485 121.697 374.522 121.953 373.536 122.467C372.551 122.98 371.661 123.686 370.864 124.585C370.076 125.483 369.468 126.51 369.04 127.665V146.983H358.761V113.289H368.012V118.937C368.868 117.611 369.939 116.477 371.224 115.535C372.509 114.594 373.986 113.875 375.656 113.379C377.327 112.891 379.147 112.647 381.117 112.647C383.301 112.647 385.066 113.041 386.41 113.828C387.764 114.624 388.792 115.664 389.494 116.947C390.205 118.231 390.676 119.609 390.907 121.081C391.147 122.561 391.267 124.007 391.267 125.419ZM408.343 146.983H398.064V113.289H408.343V146.983ZM408.343 109.438H398.064V100.133H408.343V109.438ZM431.534 147.625C428.664 147.625 426.116 147.163 423.889 146.239C421.662 145.323 419.769 144.074 418.21 142.491C416.643 140.907 415.452 139.076 414.638 136.997C413.824 134.926 413.418 132.757 413.418 130.489C413.418 127.237 414.137 124.272 415.576 121.594C417.007 118.924 419.071 116.763 421.769 115.112C424.467 113.469 427.722 112.647 431.534 112.647C435.345 112.647 438.592 113.46 441.273 115.086C443.945 116.712 445.988 118.839 447.401 121.466C448.815 124.101 449.521 126.959 449.521 130.04C449.521 130.639 449.491 131.225 449.431 131.798C449.363 132.38 449.307 132.885 449.264 133.313H424.339C424.467 134.81 424.887 136.073 425.598 137.1C426.3 138.126 427.208 138.905 428.322 139.436C429.435 139.975 430.613 140.244 431.855 140.244C433.397 140.244 434.844 139.881 436.198 139.153C437.542 138.426 438.472 137.442 438.986 136.201L447.723 138.64C446.866 140.394 445.658 141.943 444.099 143.286C442.532 144.638 440.69 145.699 438.575 146.47C436.45 147.24 434.103 147.625 431.534 147.625ZM424.082 127.023H438.729C438.557 125.612 438.151 124.379 437.508 123.327C436.866 122.283 436.009 121.47 434.939 120.888C433.868 120.315 432.69 120.028 431.405 120.028C430.078 120.028 428.891 120.315 427.846 120.888C426.793 121.47 425.945 122.283 425.302 123.327C424.66 124.379 424.253 125.612 424.082 127.023Z" fill="#DBD5CF"/>
</g>
</g>
<g clip-path="url(#clip10_215_231)">
<g clip-path="url(#clip11_215_231)">
<path d="M66.5236 198.979V194.074C66.5236 193.482 66.3045 192.907 65.8663 192.351C65.4281 191.8 64.6549 191.486 63.5466 191.409C62.8248 192.284 61.9485 192.722 60.9175 192.722C60.0411 192.722 59.2936 192.413 58.675 191.795C58.0564 191.177 57.7471 190.417 57.7471 189.516C57.7471 188.615 58.0564 187.855 58.675 187.237C59.2936 186.619 60.0411 186.31 60.9175 186.31C61.3814 186.31 61.8402 186.439 62.2939 186.697C62.7424 186.954 63.147 187.263 63.5079 187.624C64.0749 187.598 64.5131 187.508 64.8224 187.353C65.1317 187.199 65.3586 187.011 65.5029 186.789C65.6421 186.573 65.7246 186.323 65.7503 186.04C65.7761 185.757 65.789 185.473 65.789 185.19V181.289C65.789 180.645 65.5905 180.053 65.1936 179.512C64.7915 178.972 64.1136 178.701 63.1599 178.701H55.0794L55.0407 204.194C55.0407 204.709 54.801 205.1 54.3216 205.368C53.8473 205.641 53.3267 205.777 52.7596 205.777C51.2389 205.777 50.4785 205.159 50.4785 203.923V177.118C50.4785 176.191 50.7182 175.573 51.1976 175.264C51.6719 174.955 52.2441 174.8 52.9143 174.8H64.1265C64.7967 174.8 65.5132 174.929 66.2762 175.186C67.0339 175.444 67.7479 175.791 68.4181 176.229H68.3794C69.0496 176.718 69.547 177.362 69.8718 178.16C70.1914 178.959 70.3512 179.886 70.3512 180.941V185.306C70.3512 186.336 70.1321 187.178 69.6939 187.832C69.2558 188.491 68.7918 189.014 68.3021 189.4C68.6372 189.606 68.9594 189.817 69.2687 190.034C69.578 190.255 69.8357 190.495 70.0419 190.752C70.377 191.113 70.6425 191.538 70.8384 192.027C71.0291 192.516 71.1245 193.095 71.1245 193.765V199.288C71.1245 201.4 70.2997 202.958 68.65 203.962C67.8252 204.477 67.0468 204.863 66.3148 205.121C65.5776 205.378 64.8482 205.507 64.1265 205.507H58.4044C57.9662 205.507 57.626 205.327 57.3837 204.966C57.1363 204.606 57.0125 204.129 57.0125 203.537C57.0125 202.25 57.5538 201.606 58.6364 201.606H63.9332C64.8869 201.606 65.557 201.335 65.9437 200.795C66.3303 200.254 66.5236 199.649 66.5236 198.979ZM104.027 183.838V199.327C104.027 200.357 103.846 201.271 103.485 202.069C103.124 202.868 102.609 203.511 101.939 204.001H101.977C101.333 204.438 100.65 204.791 99.9283 205.059C99.2066 205.332 98.5107 205.468 97.8405 205.468H91.6158C90.9714 205.468 90.2832 205.332 89.5512 205.059C88.814 204.791 88.1232 204.438 87.4789 204.001H87.5175C86.8474 203.511 86.3319 202.868 85.971 202.069C85.6101 201.271 85.4297 200.357 85.4297 199.327V183.838C85.4297 182.602 86.1385 181.984 87.5562 181.984C88.9738 181.984 89.6826 182.602 89.6826 183.838V199.018C89.6826 199.739 89.8631 200.37 90.2239 200.911C90.559 201.529 91.2549 201.838 92.3117 201.838H97.1446C98.1756 201.838 98.8586 201.529 99.1937 200.911L99.155 200.949C99.5674 200.331 99.7736 199.687 99.7736 199.018V183.838C99.7736 182.602 100.482 181.984 101.9 181.984C103.318 181.984 104.027 182.602 104.027 183.838ZM122.09 183.916V203.846C122.09 205.082 121.381 205.7 119.963 205.7C118.52 205.7 117.798 205.082 117.798 203.846V183.916C117.798 182.68 118.52 182.062 119.963 182.062C121.381 182.062 122.09 182.68 122.09 183.916ZM122.902 177.195C122.902 178.019 122.618 178.714 122.051 179.281C121.484 179.847 120.788 180.13 119.963 180.13C119.139 180.13 118.435 179.847 117.852 179.281C117.275 178.714 116.986 178.019 116.986 177.195C116.986 176.345 117.275 175.637 117.852 175.07C118.435 174.504 119.139 174.221 119.963 174.221C120.788 174.221 121.484 174.504 122.051 175.07C122.618 175.637 122.902 176.345 122.902 177.195ZM140.725 176.268V203.962C140.725 205.172 140.016 205.777 138.599 205.777C137.155 205.777 136.434 205.172 136.434 203.962V176.268C136.434 175.058 137.155 174.452 138.599 174.452C140.016 174.452 140.725 175.058 140.725 176.268ZM169.266 204.116V185.847H161.804C160.748 185.847 160.052 186.156 159.717 186.774C159.356 187.315 159.175 187.945 159.175 188.666V199.79C159.175 200.46 159.381 200.967 159.794 201.312C160.206 201.663 160.889 201.838 161.843 201.838H165.825C166.753 201.838 167.217 202.443 167.217 203.653C167.217 204.168 167.106 204.598 166.885 204.943C166.668 205.293 166.315 205.468 165.825 205.468H161.147C159.523 205.468 158.08 205.056 156.817 204.232C155.554 203.46 154.922 201.992 154.922 199.829V188.319C154.922 187.263 155.09 186.349 155.425 185.576C155.76 184.804 156.288 184.173 157.01 183.684C158.376 182.705 159.742 182.216 161.108 182.216H169.266V176.422C169.266 175.186 169.975 174.568 171.393 174.568C172.81 174.568 173.519 175.186 173.519 176.422V203.846C173.519 205.082 172.81 205.7 171.393 205.7C170.851 205.7 170.362 205.602 169.923 205.407C169.485 205.216 169.266 204.786 169.266 204.116Z" fill="#F13D5E"/>
<path d="M212.642 202.765H207.964C207.294 202.765 206.606 202.649 205.899 202.417C205.188 202.185 204.497 201.85 203.827 201.413C202.435 200.511 201.739 198.992 201.739 196.855V188.126C201.739 187.044 201.927 186.117 202.304 185.345C202.675 184.572 203.183 183.967 203.827 183.529C204.497 183.117 205.18 182.795 205.876 182.564C206.572 182.332 207.255 182.216 207.925 182.216H214.421C215.065 182.216 215.735 182.358 216.431 182.641C217.127 182.924 217.771 183.285 218.364 183.722C218.957 184.212 219.434 184.855 219.795 185.654C220.156 186.452 220.336 187.353 220.336 188.357V204.734C220.336 205.816 220.163 206.738 219.818 207.5C219.467 208.257 218.983 208.893 218.364 209.408C217.771 209.897 217.135 210.278 216.454 210.551C215.769 210.819 215.091 210.953 214.421 210.953H207.925C206.559 210.953 205.18 210.554 203.788 209.756C203.067 209.344 202.543 208.816 202.219 208.172C201.899 207.528 201.739 206.782 201.739 205.932V205.468C201.739 204.953 201.907 204.541 202.242 204.232C202.577 203.923 203.105 203.769 203.827 203.769C205.27 203.923 205.992 204.49 205.992 205.468V205.893C205.992 206.176 206.193 206.485 206.595 206.82C206.992 207.155 207.668 207.322 208.621 207.322H213.454C214.408 207.322 215.086 207.052 215.488 206.511C215.885 205.97 216.083 205.365 216.083 204.696V188.396C216.083 187.752 215.885 187.165 215.488 186.635C215.086 186.109 214.408 185.847 213.454 185.847H208.621C207.668 185.847 206.992 186.109 206.595 186.635C206.193 187.165 205.992 187.752 205.992 188.396V196.546C205.992 197.19 206.193 197.79 206.595 198.346C206.992 198.897 207.668 199.172 208.621 199.172H212.642C213.57 199.172 214.034 199.765 214.034 200.949C214.034 201.49 213.926 201.928 213.709 202.262C213.488 202.597 213.132 202.765 212.642 202.765ZM238.624 188.357V199.288C238.624 199.906 238.825 200.486 239.227 201.026C239.624 201.567 240.299 201.838 241.253 201.838H246.086C247.039 201.838 247.717 201.598 248.119 201.119C248.516 200.645 248.715 200.099 248.715 199.481V199.057C248.715 197.846 249.423 197.241 250.841 197.241C252.259 197.241 252.968 197.846 252.968 199.057V199.52C252.968 200.602 252.795 201.49 252.449 202.185C252.099 202.88 251.576 203.486 250.88 204.001C249.514 204.979 248.148 205.468 246.781 205.468H240.286C238.92 205.468 237.593 204.979 236.304 204.001C235.685 203.486 235.208 202.837 234.873 202.054C234.538 201.266 234.371 200.357 234.371 199.327V188.319C234.371 186.233 235.015 184.688 236.304 183.684C236.948 183.22 237.613 182.852 238.299 182.579C238.979 182.311 239.642 182.177 240.286 182.177H246.781C247.4 182.177 248.083 182.298 248.831 182.541C249.578 182.788 250.274 183.117 250.918 183.529C251.537 183.967 252.034 184.572 252.411 185.345C252.782 186.117 252.968 187.031 252.968 188.087V193.301C252.968 193.894 252.795 194.422 252.449 194.885C252.099 195.349 251.46 195.58 250.532 195.58H242.181C241.253 195.58 240.763 194.975 240.711 193.765C240.711 192.555 241.201 191.95 242.181 191.95H248.753L248.715 188.357C248.715 187.714 248.516 187.127 248.119 186.596C247.717 186.071 247.039 185.808 246.086 185.808H241.253C240.299 185.808 239.624 186.071 239.227 186.596C238.825 187.127 238.624 187.714 238.624 188.357ZM270.992 188.666V203.846C270.992 205.082 270.283 205.7 268.866 205.7C267.448 205.7 266.739 205.082 266.739 203.846V188.319C266.739 187.263 266.907 186.349 267.242 185.576C267.577 184.804 268.105 184.173 268.827 183.684C270.193 182.705 271.559 182.216 272.925 182.216H279.15C280.465 182.216 281.831 182.705 283.248 183.684C284.64 184.662 285.336 186.207 285.336 188.319V203.846C285.336 205.082 284.627 205.7 283.21 205.7C281.792 205.7 281.083 205.082 281.083 203.846V188.666C281.083 187.997 280.877 187.353 280.465 186.735L280.503 186.774C280.168 186.156 279.485 185.847 278.454 185.847H273.621C272.564 185.847 271.868 186.156 271.533 186.774C271.173 187.315 270.992 187.945 270.992 188.666ZM303.546 183.916V203.846C303.546 205.082 302.837 205.7 301.42 205.7C299.976 205.7 299.255 205.082 299.255 203.846V183.916C299.255 182.68 299.976 182.062 301.42 182.062C302.837 182.062 303.546 182.68 303.546 183.916ZM304.358 177.195C304.358 178.019 304.075 178.714 303.508 179.281C302.941 179.847 302.245 180.13 301.42 180.13C300.595 180.13 299.894 179.847 299.317 179.281C298.734 178.714 298.443 178.019 298.443 177.195C298.443 176.345 298.734 175.637 299.317 175.07C299.894 174.504 300.595 174.221 301.42 174.221C302.245 174.221 302.941 174.504 303.508 175.07C304.075 175.637 304.358 176.345 304.358 177.195ZM323.968 182.216H330.154C330.824 182.216 331.512 182.358 332.219 182.641C332.93 182.924 333.621 183.285 334.291 183.722H334.252C334.922 184.212 335.438 184.848 335.799 185.631C336.16 186.418 336.34 187.327 336.34 188.357V199.327C336.34 201.438 335.644 202.996 334.252 204.001C332.886 204.979 331.52 205.468 330.154 205.468H323.968C323.298 205.468 322.615 205.352 321.919 205.121C321.223 204.889 320.54 204.516 319.87 204.001C318.478 203.022 317.782 201.464 317.782 199.327V188.357C317.782 187.327 317.962 186.418 318.323 185.631C318.684 184.848 319.2 184.212 319.87 183.722H319.831C320.475 183.285 321.158 182.924 321.88 182.641C322.602 182.358 323.298 182.216 323.968 182.216ZM324.664 201.838H329.458C330.412 201.838 331.087 201.567 331.484 201.026C331.886 200.486 332.087 199.906 332.087 199.288V188.396C332.087 187.752 331.886 187.165 331.484 186.635C331.087 186.109 330.412 185.847 329.458 185.847H324.664C323.71 185.847 323.032 186.109 322.63 186.635C322.233 187.165 322.035 187.752 322.035 188.396V199.288C322.035 199.906 322.233 200.486 322.63 201.026C323.032 201.567 323.71 201.838 324.664 201.838ZM368.662 183.838V199.327C368.662 200.357 368.482 201.271 368.121 202.069C367.76 202.868 367.245 203.511 366.574 204.001H366.613C365.969 204.438 365.286 204.791 364.564 205.059C363.842 205.332 363.146 205.468 362.476 205.468H356.251C355.607 205.468 354.919 205.332 354.187 205.059C353.45 204.791 352.759 204.438 352.115 204.001H352.153C351.483 203.511 350.968 202.868 350.607 202.069C350.246 201.271 350.065 200.357 350.065 199.327V183.838C350.065 182.602 350.774 181.984 352.192 181.984C353.609 181.984 354.318 182.602 354.318 183.838V199.018C354.318 199.739 354.499 200.37 354.86 200.911C355.195 201.529 355.891 201.838 356.947 201.838H361.78C362.811 201.838 363.494 201.529 363.829 200.911L363.791 200.949C364.203 200.331 364.409 199.687 364.409 199.018V183.838C364.409 182.602 365.118 181.984 366.536 181.984C367.953 181.984 368.662 182.602 368.662 183.838ZM389.239 191.95H394.922C395.566 191.95 396.255 192.096 396.987 192.39C397.724 192.689 398.415 193.057 399.059 193.495H399.02C399.69 193.984 400.206 194.615 400.567 195.387C400.928 196.16 401.108 197.087 401.108 198.168V199.327C401.108 201.438 400.412 202.996 399.02 204.001C398.35 204.516 397.667 204.889 396.971 205.121C396.275 205.352 395.592 205.468 394.922 205.468H388.349C387.679 205.468 386.996 205.352 386.3 205.121C385.604 204.889 384.921 204.516 384.251 204.001C382.859 203.022 382.163 201.464 382.163 199.327V198.863C382.163 197.756 382.872 197.215 384.29 197.241C385.733 197.241 386.455 197.782 386.455 198.863V199.288C386.455 199.906 386.648 200.486 387.035 201.026C387.421 201.567 388.104 201.838 389.084 201.838H394.187C395.167 201.838 395.85 201.567 396.237 201.026C396.623 200.486 396.816 199.906 396.816 199.288V198.207C396.816 197.872 396.77 197.55 396.677 197.241C396.59 196.932 396.443 196.654 396.237 196.407C396.03 196.165 395.76 195.967 395.425 195.812C395.09 195.658 394.677 195.58 394.187 195.58H388.543C387.228 195.58 385.849 195.117 384.406 194.19C383.04 193.314 382.357 191.808 382.357 189.671V188.357C382.357 187.327 382.537 186.418 382.898 185.631C383.259 184.848 383.774 184.212 384.444 183.722H384.406C385.05 183.285 385.733 182.924 386.455 182.641C387.177 182.358 387.872 182.216 388.543 182.216H394.729C395.399 182.216 396.087 182.358 396.793 182.641C397.505 182.924 398.195 183.285 398.866 183.722H398.827C399.497 184.212 400.013 184.848 400.373 185.631C400.734 186.418 400.915 187.327 400.915 188.357V188.705C400.915 189.246 400.734 189.637 400.373 189.879C400.013 190.126 399.484 190.263 398.788 190.289C397.371 190.314 396.662 189.787 396.662 188.705V188.396C396.662 187.752 396.461 187.165 396.059 186.635C395.662 186.109 394.986 185.847 394.033 185.847H389.239C388.285 185.847 387.607 186.109 387.205 186.635C386.808 187.165 386.609 187.752 386.609 188.396V189.323C386.609 189.993 386.808 190.598 387.205 191.138C387.607 191.679 388.285 191.95 389.239 191.95ZM419.396 176.268V203.962C419.396 205.172 418.687 205.777 417.269 205.777C415.826 205.777 415.104 205.172 415.104 203.962V176.268C415.104 175.058 415.826 174.452 417.269 174.452C418.687 174.452 419.396 175.058 419.396 176.268ZM436.833 210.876H434.822C433.92 210.876 433.443 210.271 433.392 209.06C433.392 207.85 433.868 207.245 434.822 207.245H436.523C437.425 207.245 438.018 206.975 438.302 206.434L438.843 205.005L439.036 204.387L431.497 184.649V184.688C431.291 184.07 431.337 183.542 431.636 183.104C431.93 182.667 432.386 182.345 433.005 182.139C433.469 182.01 433.843 181.946 434.126 181.946C434.874 181.946 435.338 182.383 435.518 183.259L438.572 190.868L441.163 197.203L445.3 183.336C445.532 182.409 446.073 181.946 446.924 181.946C447.13 181.946 447.465 182.01 447.929 182.139C448.547 182.319 448.993 182.615 449.266 183.027C449.535 183.439 449.591 183.928 449.437 184.495C448.277 188.435 447.099 192.4 445.903 196.391C444.702 200.383 443.521 204.335 442.361 208.249C442.232 208.533 442.034 208.824 441.766 209.122C441.493 209.416 441.137 209.699 440.699 209.972C440.261 210.24 439.719 210.459 439.075 210.629C438.431 210.793 437.683 210.876 436.833 210.876Z" fill="#DBD5CF"/>
</g>
</g>
</g>
</g>
</g>
</g>
</g>
<mask id="mask0_215_231" style="mask-type:luminance" maskUnits="userSpaceOnUse" x="0" y="-1" width="808" height="505">
<path d="M807.724 -0.125977H0.598145V503.834H807.724V-0.125977Z" fill="white"/>
<path d="M469.473 85.9862H30.5264V225.209H469.473V85.9862Z" fill="black"/>
</mask>
<g mask="url(#mask0_215_231)">
<g clip-path="url(#clip12_215_231)">
<path d="M139.34 107.378C134.772 136.836 141.127 165.993 156.779 187.367C168.812 203.791 185.588 214.41 204.021 217.263C223.461 220.273 242.555 215.795 257.793 204.657C262.066 201.537 265.874 197.999 269.182 194.134C261.573 197.479 252.697 198.468 243.068 196.977C202.946 190.764 175.702 150.917 182.338 108.155C185.537 87.5267 197.351 68.8243 215.599 55.4826C238.774 38.5421 270.226 31.6386 301.894 36.5408C327.487 40.5023 362.402 56.9434 389.419 88.5837C389.419 88.5837 311.225 -46.2735 197.265 18.9469C160.519 39.9755 143.274 81.995 139.34 107.378Z" fill="#DBD5CF"/>
<path d="M362.056 208.341C367.737 179.075 362.484 149.702 347.65 127.754C336.243 110.885 319.882 99.6437 301.569 96.0996C282.259 92.3571 263.008 96.1133 247.362 106.674C242.972 109.626 239.038 113.016 235.583 116.755C243.311 113.697 252.221 113.047 261.785 114.898C301.644 122.619 327.364 163.462 319.122 205.95C315.146 226.438 302.634 244.689 283.893 257.329C260.097 273.38 228.402 279.1 196.939 273.004C171.521 268.081 137.251 250.337 111.445 217.701C111.445 217.701 184.489 355.411 300.833 294.525C338.349 274.899 357.162 233.56 362.056 208.341Z" fill="#DBD5CF"/>
<path d="M201.737 268.632C231.224 273.195 260.406 266.846 281.801 251.205C298.241 239.184 308.87 222.425 311.729 204.01C314.739 184.593 310.26 165.514 299.107 150.294C295.984 146.025 292.443 142.221 288.574 138.913C291.926 146.514 292.912 155.385 291.419 165.001C285.201 205.084 245.318 232.301 202.508 225.675C181.862 222.48 163.138 210.674 149.79 192.447C132.833 169.294 125.92 137.869 130.827 106.232C134.792 80.6643 151.249 45.7843 182.921 18.7964C182.921 18.7964 47.9313 96.9137 113.216 210.763C134.265 247.473 176.325 264.698 201.737 268.632Z" fill="#DBD5CF"/>
<path d="M389.067 107.293C369.418 69.8165 328.039 51.0184 302.795 46.1298C273.503 40.4545 244.099 45.7022 222.129 60.5252C205.244 71.9204 193.991 88.2622 190.44 106.557C186.694 125.852 190.454 145.081 201.028 160.711C203.983 165.097 207.377 169.027 211.116 172.483C208.055 164.761 207.404 155.86 209.26 146.305C216.989 106.486 257.872 80.7909 300.398 89.0251C320.909 92.9968 339.175 105.5 351.827 124.223C367.898 147.995 373.616 179.656 367.521 211.088C362.59 236.482 344.832 270.719 312.16 296.495C312.16 296.495 450.005 223.523 389.067 107.293Z" fill="#DBD5CF"/>
</g>
</g>
</g>
</g>
</g>
<defs>
<clipPath id="clip0_215_231">
<rect width="500" height="311.195" fill="white"/>
</clipPath>
<clipPath id="clip1_215_231">
<rect width="498.803" height="311.447" fill="white" transform="translate(0.598145 -0.125977)"/>
</clipPath>
<clipPath id="clip2_215_231">
<rect width="498.803" height="311.447" fill="white" transform="translate(0.598145 -0.125977)"/>
</clipPath>
<clipPath id="clip3_215_231">
<rect width="399.043" height="110.965" fill="white" transform="translate(50.4785 100.115)"/>
</clipPath>
<clipPath id="clip4_215_231">
<rect width="399.043" height="110.965" fill="white" transform="translate(50.4785 100.115)"/>
</clipPath>
<clipPath id="clip5_215_231">
<rect width="399.043" height="110.965" fill="white" transform="translate(50.4785 100.115)"/>
</clipPath>
<clipPath id="clip6_215_231">
<rect width="399.043" height="110.965" fill="white" transform="translate(50.4785 100.115)"/>
</clipPath>
<clipPath id="clip7_215_231">
<rect width="399.043" height="110.965" fill="white" transform="translate(50.4785 100.115)"/>
</clipPath>
<clipPath id="clip8_215_231">
<rect width="399.043" height="59.8493" fill="white" transform="translate(50.4785 100.115)"/>
</clipPath>
<clipPath id="clip9_215_231">
<rect width="399.043" height="59.8493" fill="white" transform="translate(50.4785 100.115)"/>
</clipPath>
<clipPath id="clip10_215_231">
<rect width="399.043" height="36.9869" fill="white" transform="translate(50.4785 174.094)"/>
</clipPath>
<clipPath id="clip11_215_231">
<rect width="399.043" height="36.9869" fill="white" transform="translate(50.4785 174.094)"/>
</clipPath>
<clipPath id="clip12_215_231">
<rect width="309.231" height="308.928" fill="white" transform="translate(95.3843 1.13391)"/>
</clipPath>
</defs>
</svg>
