<svg width="500" height="312" viewBox="0 0 500 312" fill="none" xmlns="http://www.w3.org/2000/svg">
<g clip-path="url(#clip0_215_524)">
<g clip-path="url(#clip1_215_524)">
<g clip-path="url(#clip2_215_524)">
<g clip-path="url(#clip3_215_524)">
<g clip-path="url(#clip4_215_524)">
<g clip-path="url(#clip5_215_524)">
<g clip-path="url(#clip6_215_524)">
<g clip-path="url(#clip7_215_524)">
<g clip-path="url(#clip8_215_524)">
<g clip-path="url(#clip9_215_524)">
<path d="M61.0141 147.363H50.4785V101.678H69.9437C72.1279 101.678 74.1323 102.116 75.9567 102.991C77.7726 103.875 79.3444 105.054 80.672 106.53C81.9997 108.014 83.0276 109.678 83.7556 111.523C84.4837 113.368 84.8477 115.255 84.8477 117.185C84.8477 119.802 84.2396 122.29 83.0233 124.649C81.7984 127.009 80.1067 128.926 77.9482 130.402C75.7811 131.886 73.22 132.628 70.2649 132.628H61.0141V147.363ZM61.0141 110.944V123.427H69.6225C70.4362 123.427 71.1857 123.191 71.871 122.719C72.5562 122.247 73.113 121.539 73.5412 120.596C73.9695 119.652 74.1836 118.494 74.1836 117.121C74.1836 115.705 73.9395 114.534 73.4513 113.608C72.9545 112.69 72.3335 112.016 71.5883 111.587C70.8345 111.158 70.0508 110.944 69.237 110.944H61.0141ZM111.058 113.132V122.397C108.574 122.397 106.326 122.792 104.313 123.581C102.3 124.379 100.844 125.55 99.9445 127.094V147.363H89.6659V113.582H99.1094V120.403C100.266 118.129 101.765 116.349 103.606 115.062C105.448 113.775 107.375 113.11 109.388 113.067C109.859 113.067 110.21 113.067 110.442 113.067C110.681 113.067 110.887 113.089 111.058 113.132ZM131.423 148.006C128.553 148.006 125.992 147.535 123.74 146.591C121.495 145.647 119.602 144.36 118.061 142.73C116.519 141.1 115.35 139.234 114.553 137.132C113.765 135.03 113.371 132.821 113.371 130.505C113.371 128.145 113.765 125.915 114.553 123.813C115.35 121.711 116.519 119.845 118.061 118.215C119.602 116.585 121.495 115.298 123.74 114.354C125.992 113.41 128.553 112.939 131.423 112.939C134.292 112.939 136.836 113.41 139.055 114.354C141.29 115.298 143.179 116.585 144.721 118.215C146.263 119.845 147.44 121.711 148.254 123.813C149.068 125.915 149.475 128.145 149.475 130.505C149.475 132.821 149.068 135.03 148.254 137.132C147.44 139.234 146.263 141.1 144.721 142.73C143.179 144.36 141.29 145.647 139.055 146.591C136.836 147.535 134.292 148.006 131.423 148.006ZM123.907 130.505C123.907 132.263 124.236 133.808 124.896 135.137C125.564 136.467 126.455 137.497 127.568 138.226C128.682 138.955 129.967 139.32 131.423 139.32C132.836 139.32 134.108 138.942 135.239 138.187C136.378 137.441 137.269 136.403 137.911 135.073C138.554 133.743 138.875 132.221 138.875 130.505C138.875 128.746 138.554 127.202 137.911 125.872C137.269 124.542 136.378 123.513 135.239 122.783C134.108 122.054 132.836 121.689 131.423 121.689C129.967 121.689 128.682 122.054 127.568 122.783C126.455 123.513 125.564 124.542 124.896 125.872C124.236 127.202 123.907 128.746 123.907 130.505ZM152.738 160.361C151.068 160.361 149.453 160.09 147.894 159.55C146.327 159.018 144.922 158.216 143.68 157.143L147.984 150.13C148.413 150.602 148.939 150.945 149.565 151.159C150.181 151.374 150.811 151.481 151.453 151.481C152.096 151.481 152.674 151.344 153.188 151.069C153.702 150.786 154.109 150.366 154.409 149.808C154.708 149.25 154.858 148.628 154.858 147.942V113.582H165.137V147.17C165.137 149.744 164.593 152.03 163.505 154.029C162.409 156.019 160.931 157.572 159.072 158.688C157.205 159.803 155.094 160.361 152.738 160.361ZM165.137 109.721H154.858V100.391H165.137V109.721ZM188.264 148.006C185.394 148.006 182.846 147.543 180.619 146.617C178.392 145.699 176.499 144.446 174.94 142.859C173.373 141.272 172.182 139.436 171.368 137.351C170.555 135.275 170.148 133.1 170.148 130.826C170.148 127.566 170.867 124.594 172.306 121.908C173.737 119.231 175.801 117.065 178.499 115.409C181.197 113.762 184.452 112.939 188.264 112.939C192.075 112.939 195.322 113.754 198.003 115.384C200.675 117.014 202.718 119.146 204.131 121.78C205.545 124.422 206.251 127.287 206.251 130.376C206.251 130.977 206.221 131.564 206.161 132.139C206.093 132.722 206.037 133.229 205.994 133.658H181.069C181.197 135.159 181.617 136.424 182.328 137.454C183.03 138.483 183.938 139.264 185.052 139.796C186.165 140.337 187.343 140.607 188.585 140.607C190.127 140.607 191.574 140.242 192.928 139.513C194.273 138.784 195.202 137.797 195.716 136.553L204.453 138.998C203.596 140.757 202.388 142.31 200.829 143.657C199.262 145.012 197.42 146.076 195.305 146.848C193.18 147.62 190.833 148.006 188.264 148.006ZM180.812 127.352H195.459C195.288 125.936 194.881 124.701 194.238 123.646C193.596 122.599 192.739 121.784 191.669 121.2C190.598 120.626 189.42 120.338 188.135 120.338C186.808 120.338 185.621 120.626 184.576 121.2C183.523 121.784 182.675 122.599 182.032 123.646C181.39 124.701 180.983 125.936 180.812 127.352ZM227.066 148.006C224.196 148.006 221.648 147.535 219.421 146.591C217.194 145.647 215.297 144.36 213.729 142.73C212.17 141.1 210.984 139.234 210.17 137.132C209.356 135.03 208.95 132.8 208.95 130.44C208.95 127.352 209.665 124.478 211.095 121.818C212.534 119.159 214.603 117.014 217.301 115.384C219.999 113.754 223.254 112.939 227.066 112.939C230.92 112.939 234.184 113.762 236.856 115.409C239.537 117.065 241.541 119.223 242.869 121.882L232.847 124.907C232.205 123.877 231.378 123.084 230.368 122.526C229.366 121.968 228.243 121.689 227.001 121.689C225.588 121.689 224.312 122.054 223.173 122.783C222.042 123.513 221.143 124.521 220.475 125.807C219.815 127.094 219.485 128.639 219.485 130.44C219.485 132.199 219.828 133.743 220.513 135.073C221.198 136.403 222.098 137.441 223.211 138.187C224.325 138.942 225.588 139.32 227.001 139.32C227.858 139.32 228.659 139.178 229.404 138.895C230.158 138.621 230.843 138.226 231.46 137.711C232.085 137.197 232.569 136.617 232.912 135.974L242.933 139.062C242.12 140.778 240.95 142.31 239.426 143.657C237.91 145.012 236.124 146.076 234.068 146.848C232.012 147.62 229.678 148.006 227.066 148.006ZM267.409 137.39L269.401 145.561C268.459 145.947 267.418 146.333 266.279 146.72C265.148 147.106 263.962 147.419 262.72 147.659C261.478 147.891 260.257 148.006 259.058 148.006C257.345 148.006 255.769 147.715 254.33 147.131C252.899 146.557 251.764 145.604 250.925 144.274C250.094 142.945 249.679 141.186 249.679 138.998V121.368H245.375V113.582H249.679V102.836H259.957V113.582H266.831V121.368H259.957V135.459C259.957 136.575 260.236 137.377 260.793 137.866C261.349 138.363 262.056 138.612 262.912 138.612C263.641 138.612 264.42 138.483 265.251 138.226C266.09 137.969 266.81 137.69 267.409 137.39Z" fill="#F13D5E"/>
<path d="M293.106 147.685C290.108 147.685 287.282 147.118 284.626 145.986C281.971 144.845 279.637 143.232 277.624 141.147C275.611 139.071 274.039 136.605 272.909 133.748C271.769 130.899 271.2 127.716 271.2 124.199C271.2 121.025 271.778 118.065 272.934 115.319C274.091 112.574 275.697 110.15 277.752 108.048C279.808 105.946 282.219 104.304 284.986 103.12C287.744 101.944 290.729 101.357 293.941 101.357C298.138 101.357 301.843 102.257 305.055 104.059C308.267 105.861 310.644 108.284 312.186 111.33L304.348 117.25C303.32 115.234 301.834 113.646 299.89 112.488C297.937 111.33 295.826 110.751 293.556 110.751C291.843 110.751 290.271 111.103 288.84 111.806C287.401 112.518 286.159 113.505 285.114 114.766C284.061 116.036 283.256 117.507 282.699 119.18C282.142 120.853 281.864 122.655 281.864 124.585C281.864 126.558 282.164 128.381 282.763 130.054C283.363 131.727 284.198 133.173 285.269 134.391C286.339 135.618 287.616 136.575 289.097 137.261C290.571 137.947 292.207 138.29 294.005 138.29C296.19 138.29 298.28 137.741 300.275 136.643C302.263 135.554 304.091 133.936 305.762 131.792V142.215C302.121 145.862 297.903 147.685 293.106 147.685ZM305.119 147.363V131.148H296.254V123.491H313.856V147.363H305.119ZM336.084 148.006C333.214 148.006 330.666 147.543 328.439 146.617C326.212 145.699 324.315 144.446 322.747 142.859C321.188 141.272 320.002 139.436 319.188 137.351C318.374 135.275 317.968 133.1 317.968 130.826C317.968 127.566 318.683 124.594 320.113 121.908C321.552 119.231 323.621 117.065 326.319 115.409C329.017 113.762 332.272 112.939 336.084 112.939C339.895 112.939 343.137 113.754 345.81 115.384C348.491 117.014 350.538 119.146 351.951 121.78C353.365 124.422 354.071 127.287 354.071 130.376C354.071 130.977 354.037 131.564 353.969 132.139C353.909 132.722 353.857 133.229 353.814 133.658H328.889C329.017 135.159 329.433 136.424 330.135 137.454C330.846 138.483 331.758 139.264 332.872 139.796C333.985 140.337 335.163 140.607 336.405 140.607C337.947 140.607 339.39 140.242 340.735 139.513C342.088 138.784 343.022 137.797 343.536 136.553L352.273 138.998C351.416 140.757 350.204 142.31 348.636 143.657C347.078 145.012 345.236 146.076 343.112 146.848C340.996 147.62 338.653 148.006 336.084 148.006ZM328.632 127.352H343.279C343.107 125.936 342.701 124.701 342.058 123.646C341.416 122.599 340.559 121.784 339.488 121.2C338.418 120.626 337.24 120.338 335.955 120.338C334.628 120.338 333.437 120.626 332.383 121.2C331.338 121.784 330.495 122.599 329.852 123.646C329.21 124.701 328.803 125.936 328.632 127.352ZM391.267 125.743V147.363H380.989V128.381C380.989 126.151 380.569 124.529 379.729 123.517C378.899 122.513 377.798 122.011 376.427 122.011C375.485 122.011 374.522 122.269 373.536 122.783C372.551 123.298 371.661 124.006 370.864 124.907C370.076 125.807 369.468 126.837 369.04 127.995V147.363H358.761V113.582H368.012V119.244C368.868 117.915 369.939 116.778 371.224 115.834C372.509 114.89 373.986 114.17 375.656 113.672C377.327 113.183 379.147 112.939 381.117 112.939C383.301 112.939 385.066 113.333 386.41 114.123C387.764 114.92 388.792 115.963 389.494 117.25C390.205 118.537 390.676 119.918 390.907 121.393C391.147 122.878 391.267 124.328 391.267 125.743ZM408.343 147.363H398.064V113.582H408.343V147.363ZM408.343 109.721H398.064V100.391H408.343V109.721ZM431.534 148.006C428.664 148.006 426.116 147.543 423.889 146.617C421.662 145.699 419.769 144.446 418.21 142.859C416.643 141.272 415.452 139.436 414.638 137.351C413.824 135.275 413.418 133.1 413.418 130.826C413.418 127.566 414.137 124.594 415.576 121.908C417.007 119.231 419.071 117.065 421.769 115.409C424.467 113.762 427.722 112.939 431.534 112.939C435.345 112.939 438.592 113.754 441.273 115.384C443.945 117.014 445.988 119.146 447.401 121.78C448.815 124.422 449.521 127.287 449.521 130.376C449.521 130.977 449.491 131.564 449.431 132.139C449.363 132.722 449.307 133.229 449.264 133.658H424.339C424.467 135.159 424.887 136.424 425.598 137.454C426.3 138.483 427.208 139.264 428.322 139.796C429.435 140.337 430.613 140.607 431.855 140.607C433.397 140.607 434.844 140.242 436.198 139.513C437.542 138.784 438.472 137.797 438.986 136.553L447.723 138.998C446.866 140.757 445.658 142.31 444.099 143.657C442.532 145.012 440.69 146.076 438.575 146.848C436.45 147.62 434.103 148.006 431.534 148.006ZM424.082 127.352H438.729C438.557 125.936 438.151 124.701 437.508 123.646C436.866 122.599 436.009 121.784 434.939 121.2C433.868 120.626 432.69 120.338 431.405 120.338C430.078 120.338 428.891 120.626 427.846 121.2C426.793 121.784 425.945 122.599 425.302 123.646C424.66 124.701 424.253 125.936 424.082 127.352Z" fill="#262626"/>
</g>
</g>
<g clip-path="url(#clip10_215_524)">
<g clip-path="url(#clip11_215_524)">
<path d="M66.5236 199.494V194.576C66.5236 193.982 66.3045 193.406 65.8663 192.849C65.4281 192.296 64.6549 191.981 63.5466 191.904C62.8249 192.781 61.9485 193.22 60.9175 193.22C60.0411 193.22 59.2936 192.911 58.675 192.291C58.0564 191.671 57.7471 190.91 57.7471 190.006C57.7471 189.103 58.0564 188.341 58.675 187.721C59.2936 187.102 60.0411 186.792 60.9175 186.792C61.3814 186.792 61.8402 186.921 62.2939 187.179C62.7424 187.437 63.147 187.747 63.5079 188.109C64.0749 188.083 64.5131 187.993 64.8224 187.838C65.1317 187.683 65.3586 187.494 65.5029 187.272C65.6421 187.055 65.7246 186.805 65.7503 186.521C65.7761 186.237 65.789 185.953 65.789 185.669V181.758C65.789 181.112 65.5905 180.519 65.1936 179.976C64.7915 179.434 64.1136 179.163 63.1599 179.163H55.0794L55.0407 204.722C55.0407 205.238 54.801 205.63 54.3216 205.899C53.8473 206.173 53.3267 206.309 52.7596 206.309C51.2389 206.309 50.4785 205.69 50.4785 204.451V177.576C50.4785 176.646 50.7182 176.027 51.1976 175.717C51.6719 175.407 52.2441 175.252 52.9143 175.252H64.1265C64.7967 175.252 65.5132 175.381 66.2762 175.639C67.0339 175.897 67.7479 176.246 68.4181 176.685H68.3794C69.0496 177.175 69.547 177.821 69.8718 178.621C70.1914 179.421 70.3512 180.351 70.3512 181.409V185.785C70.3512 186.818 70.1321 187.662 69.694 188.318C69.2558 188.979 68.7918 189.503 68.3021 189.89C68.6372 190.097 68.9594 190.308 69.2687 190.525C69.578 190.747 69.8357 190.987 70.0419 191.245C70.377 191.607 70.6425 192.033 70.8384 192.523C71.0291 193.014 71.1245 193.595 71.1245 194.266V199.804C71.1245 201.921 70.2997 203.482 68.6501 204.489C67.8252 205.006 67.0468 205.393 66.3148 205.651C65.5776 205.909 64.8482 206.038 64.1265 206.038H58.4044C57.9662 206.038 57.626 205.858 57.3837 205.496C57.1363 205.135 57.0125 204.657 57.0125 204.063C57.0125 202.773 57.5538 202.127 58.6364 202.127H63.9332C64.8869 202.127 65.557 201.856 65.9437 201.314C66.3303 200.772 66.5236 200.165 66.5236 199.494ZM104.027 184.314V199.842C104.027 200.875 103.846 201.791 103.485 202.592C103.124 203.392 102.609 204.038 101.939 204.528H101.977C101.333 204.967 100.65 205.321 99.9283 205.589C99.2066 205.863 98.5107 206 97.8405 206H91.6158C90.9714 206 90.2832 205.863 89.5512 205.589C88.814 205.321 88.1232 204.967 87.4789 204.528H87.5175C86.8474 204.038 86.3319 203.392 85.971 202.592C85.6102 201.791 85.4297 200.875 85.4297 199.842V184.314C85.4297 183.074 86.1385 182.455 87.5562 182.455C88.9738 182.455 89.6826 183.074 89.6826 184.314V199.533C89.6826 200.255 89.8631 200.888 90.2239 201.43C90.559 202.05 91.2549 202.359 92.3117 202.359H97.1446C98.1756 202.359 98.8586 202.05 99.1937 201.43L99.155 201.469C99.5674 200.849 99.7736 200.204 99.7736 199.533V184.314C99.7736 183.074 100.482 182.455 101.9 182.455C103.318 182.455 104.027 183.074 104.027 184.314ZM122.09 184.391V204.373C122.09 205.612 121.381 206.232 119.963 206.232C118.52 206.232 117.798 205.612 117.798 204.373V184.391C117.798 183.152 118.52 182.532 119.963 182.532C121.381 182.532 122.09 183.152 122.09 184.391ZM122.902 177.653C122.902 178.479 122.618 179.176 122.051 179.744C121.484 180.312 120.788 180.596 119.963 180.596C119.139 180.596 118.435 180.312 117.852 179.744C117.275 179.176 116.986 178.479 116.986 177.653C116.986 176.801 117.275 176.091 117.852 175.523C118.435 174.955 119.139 174.671 119.963 174.671C120.788 174.671 121.484 174.955 122.051 175.523C122.618 176.091 122.902 176.801 122.902 177.653ZM140.725 176.724V204.489C140.725 205.703 140.017 206.309 138.599 206.309C137.155 206.309 136.434 205.703 136.434 204.489V176.724C136.434 175.51 137.155 174.903 138.599 174.903C140.017 174.903 140.725 175.51 140.725 176.724ZM169.266 204.644V186.327H161.804C160.748 186.327 160.052 186.637 159.717 187.257C159.356 187.799 159.175 188.431 159.175 189.154V200.307C159.175 200.978 159.381 201.487 159.794 201.833C160.206 202.184 160.889 202.359 161.843 202.359H165.825C166.753 202.359 167.217 202.966 167.217 204.18C167.217 204.696 167.106 205.127 166.885 205.473C166.668 205.824 166.315 206 165.825 206H161.147C159.523 206 158.08 205.587 156.817 204.76C155.554 203.986 154.922 202.514 154.922 200.346V188.806C154.922 187.747 155.09 186.831 155.425 186.056C155.76 185.282 156.288 184.649 157.01 184.159C158.376 183.178 159.742 182.687 161.108 182.687H169.266V176.878C169.266 175.639 169.975 175.02 171.393 175.02C172.81 175.02 173.519 175.639 173.519 176.878V204.373C173.519 205.612 172.81 206.232 171.393 206.232C170.851 206.232 170.362 206.134 169.924 205.938C169.485 205.747 169.266 205.315 169.266 204.644Z" fill="#F13D5E"/>
<path d="M212.642 203.289H207.964C207.294 203.289 206.606 203.173 205.899 202.94C205.188 202.708 204.497 202.372 203.827 201.933C202.435 201.03 201.739 199.507 201.739 197.364V188.612C201.739 187.528 201.927 186.598 202.304 185.824C202.675 185.049 203.183 184.443 203.827 184.004C204.497 183.591 205.18 183.268 205.876 183.036C206.572 182.803 207.255 182.687 207.925 182.687H214.421C215.065 182.687 215.735 182.829 216.431 183.113C217.127 183.397 217.771 183.759 218.364 184.197C218.957 184.688 219.434 185.333 219.795 186.134C220.156 186.934 220.336 187.838 220.336 188.844V205.264C220.336 206.348 220.163 207.272 219.818 208.037C219.467 208.796 218.983 209.433 218.364 209.95C217.771 210.44 217.135 210.822 216.454 211.096C215.769 211.364 215.091 211.499 214.421 211.499H207.925C206.559 211.499 205.18 211.098 203.788 210.298C203.067 209.885 202.543 209.356 202.219 208.71C201.899 208.065 201.739 207.316 201.739 206.464V206C201.739 205.483 201.907 205.07 202.242 204.76C202.577 204.451 203.105 204.296 203.827 204.296C205.27 204.451 205.992 205.019 205.992 206V206.426C205.992 206.71 206.193 207.019 206.595 207.355C206.992 207.691 207.668 207.858 208.621 207.858H213.454C214.408 207.858 215.086 207.587 215.488 207.045C215.885 206.503 216.083 205.896 216.083 205.225V188.883C216.083 188.238 215.885 187.649 215.488 187.117C215.086 186.591 214.408 186.327 213.454 186.327H208.621C207.668 186.327 206.992 186.591 206.595 187.117C206.193 187.649 205.992 188.238 205.992 188.883V197.054C205.992 197.7 206.193 198.301 206.595 198.859C206.992 199.411 207.668 199.687 208.621 199.687H212.642C213.57 199.687 214.034 200.281 214.034 201.469C214.034 202.011 213.926 202.45 213.709 202.785C213.488 203.121 213.132 203.289 212.642 203.289ZM238.624 188.844V199.804C238.624 200.423 238.825 201.004 239.227 201.546C239.624 202.088 240.299 202.359 241.253 202.359H246.086C247.039 202.359 247.717 202.119 248.119 201.639C248.516 201.164 248.715 200.617 248.715 199.997V199.571C248.715 198.358 249.423 197.751 250.841 197.751C252.259 197.751 252.968 198.358 252.968 199.571V200.036C252.968 201.12 252.795 202.011 252.449 202.708C252.099 203.405 251.576 204.012 250.88 204.528C249.514 205.509 248.148 206 246.781 206H240.286C238.92 206 237.593 205.509 236.304 204.528C235.685 204.012 235.208 203.361 234.873 202.576C234.538 201.786 234.371 200.875 234.371 199.842V188.806C234.371 186.715 235.015 185.166 236.304 184.159C236.948 183.694 237.613 183.325 238.299 183.051C238.979 182.783 239.642 182.648 240.286 182.648H246.781C247.4 182.648 248.083 182.77 248.831 183.012C249.578 183.26 250.274 183.591 250.918 184.004C251.537 184.443 252.034 185.049 252.411 185.824C252.782 186.598 252.968 187.515 252.968 188.573V193.801C252.968 194.395 252.795 194.924 252.449 195.389C252.099 195.854 251.46 196.086 250.532 196.086H242.181C241.253 196.086 240.763 195.479 240.711 194.266C240.711 193.053 241.201 192.446 242.181 192.446H248.753L248.715 188.844C248.715 188.199 248.516 187.61 248.119 187.079C247.717 186.552 247.039 186.289 246.086 186.289H241.253C240.299 186.289 239.624 186.552 239.227 187.079C238.825 187.61 238.624 188.199 238.624 188.844ZM270.992 189.154V204.373C270.992 205.612 270.283 206.232 268.866 206.232C267.448 206.232 266.739 205.612 266.739 204.373V188.806C266.739 187.747 266.907 186.831 267.242 186.056C267.577 185.282 268.105 184.649 268.827 184.159C270.193 183.178 271.559 182.687 272.925 182.687H279.15C280.465 182.687 281.831 183.178 283.248 184.159C284.64 185.14 285.336 186.689 285.336 188.806V204.373C285.336 205.612 284.627 206.232 283.21 206.232C281.792 206.232 281.083 205.612 281.083 204.373V189.154C281.083 188.483 280.877 187.838 280.465 187.218L280.503 187.257C280.168 186.637 279.485 186.327 278.454 186.327H273.621C272.564 186.327 271.868 186.637 271.533 187.257C271.173 187.799 270.992 188.431 270.992 189.154ZM303.546 184.391V204.373C303.546 205.612 302.837 206.232 301.42 206.232C299.976 206.232 299.255 205.612 299.255 204.373V184.391C299.255 183.152 299.976 182.532 301.42 182.532C302.837 182.532 303.546 183.152 303.546 184.391ZM304.358 177.653C304.358 178.479 304.075 179.176 303.508 179.744C302.941 180.312 302.245 180.596 301.42 180.596C300.595 180.596 299.894 180.312 299.317 179.744C298.734 179.176 298.443 178.479 298.443 177.653C298.443 176.801 298.734 176.091 299.317 175.523C299.894 174.955 300.595 174.671 301.42 174.671C302.245 174.671 302.941 174.955 303.508 175.523C304.075 176.091 304.358 176.801 304.358 177.653ZM323.968 182.687H330.154C330.824 182.687 331.512 182.829 332.219 183.113C332.93 183.397 333.621 183.759 334.291 184.197H334.252C334.922 184.688 335.438 185.326 335.799 186.11C336.16 186.9 336.34 187.812 336.34 188.844V199.842C336.34 201.959 335.644 203.521 334.252 204.528C332.886 205.509 331.52 206 330.154 206H323.968C323.298 206 322.615 205.883 321.919 205.651C321.223 205.419 320.54 205.044 319.87 204.528C318.478 203.547 317.782 201.985 317.782 199.842V188.844C317.782 187.812 317.962 186.9 318.323 186.11C318.684 185.326 319.2 184.688 319.87 184.197H319.831C320.475 183.759 321.158 183.397 321.88 183.113C322.602 182.829 323.298 182.687 323.968 182.687ZM324.664 202.359H329.458C330.412 202.359 331.087 202.088 331.484 201.546C331.886 201.004 332.087 200.423 332.087 199.804V188.883C332.087 188.238 331.886 187.649 331.484 187.117C331.087 186.591 330.412 186.327 329.458 186.327H324.664C323.71 186.327 323.032 186.591 322.63 187.117C322.233 187.649 322.035 188.238 322.035 188.883V199.804C322.035 200.423 322.233 201.004 322.63 201.546C323.032 202.088 323.71 202.359 324.664 202.359ZM368.662 184.314V199.842C368.662 200.875 368.482 201.791 368.121 202.592C367.76 203.392 367.245 204.038 366.574 204.528H366.613C365.969 204.967 365.286 205.321 364.564 205.589C363.842 205.863 363.146 206 362.476 206H356.251C355.607 206 354.919 205.863 354.187 205.589C353.45 205.321 352.759 204.967 352.115 204.528H352.153C351.483 204.038 350.968 203.392 350.607 202.592C350.246 201.791 350.065 200.875 350.065 199.842V184.314C350.065 183.074 350.774 182.455 352.192 182.455C353.609 182.455 354.318 183.074 354.318 184.314V199.533C354.318 200.255 354.499 200.888 354.86 201.43C355.195 202.05 355.891 202.359 356.947 202.359H361.78C362.811 202.359 363.494 202.05 363.829 201.43L363.791 201.469C364.203 200.849 364.409 200.204 364.409 199.533V184.314C364.409 183.074 365.118 182.455 366.536 182.455C367.953 182.455 368.662 183.074 368.662 184.314ZM389.239 192.446H394.922C395.566 192.446 396.255 192.593 396.987 192.887C397.724 193.187 398.415 193.556 399.059 193.995H399.02C399.69 194.485 400.206 195.118 400.567 195.892C400.928 196.667 401.108 197.596 401.108 198.681V199.842C401.108 201.959 400.412 203.521 399.02 204.528C398.35 205.044 397.667 205.419 396.971 205.651C396.275 205.883 395.592 206 394.922 206H388.349C387.679 206 386.996 205.883 386.3 205.651C385.604 205.419 384.921 205.044 384.251 204.528C382.859 203.547 382.163 201.985 382.163 199.842V199.378C382.163 198.268 382.872 197.725 384.29 197.751C385.733 197.751 386.455 198.293 386.455 199.378V199.804C386.455 200.423 386.648 201.004 387.035 201.546C387.421 202.088 388.104 202.359 389.084 202.359H394.187C395.167 202.359 395.85 202.088 396.237 201.546C396.623 201.004 396.816 200.423 396.816 199.804V198.719C396.816 198.384 396.77 198.061 396.677 197.751C396.59 197.441 396.443 197.163 396.237 196.915C396.03 196.672 395.76 196.473 395.425 196.318C395.09 196.163 394.677 196.086 394.187 196.086H388.543C387.228 196.086 385.849 195.621 384.406 194.692C383.04 193.814 382.357 192.304 382.357 190.161V188.844C382.357 187.812 382.537 186.9 382.898 186.11C383.259 185.326 383.774 184.688 384.444 184.197H384.406C385.05 183.759 385.733 183.397 386.455 183.113C387.177 182.829 387.872 182.687 388.543 182.687H394.729C395.399 182.687 396.087 182.829 396.793 183.113C397.505 183.397 398.195 183.759 398.866 184.197H398.827C399.497 184.688 400.013 185.326 400.373 186.11C400.734 186.9 400.915 187.812 400.915 188.844V189.193C400.915 189.735 400.734 190.128 400.373 190.37C400.013 190.618 399.484 190.755 398.788 190.781C397.371 190.807 396.662 190.277 396.662 189.193V188.883C396.662 188.238 396.461 187.649 396.059 187.117C395.662 186.591 394.986 186.327 394.033 186.327H389.239C388.285 186.327 387.607 186.591 387.205 187.117C386.808 187.649 386.61 188.238 386.61 188.883V189.813C386.61 190.484 386.808 191.091 387.205 191.633C387.607 192.175 388.285 192.446 389.239 192.446ZM419.396 176.724V204.489C419.396 205.703 418.687 206.309 417.269 206.309C415.826 206.309 415.104 205.703 415.104 204.489V176.724C415.104 175.51 415.826 174.903 417.269 174.903C418.687 174.903 419.396 175.51 419.396 176.724ZM436.833 211.421H434.822C433.92 211.421 433.443 210.814 433.392 209.601C433.392 208.388 433.868 207.781 434.822 207.781H436.523C437.425 207.781 438.018 207.51 438.302 206.968L438.843 205.535L439.036 204.915L431.497 185.127V185.166C431.291 184.546 431.337 184.017 431.636 183.578C431.93 183.139 432.386 182.816 433.005 182.61C433.469 182.481 433.843 182.416 434.126 182.416C434.874 182.416 435.338 182.855 435.518 183.733L438.572 191.362L441.163 197.712L445.3 183.81C445.532 182.881 446.073 182.416 446.924 182.416C447.13 182.416 447.465 182.481 447.929 182.61C448.547 182.79 448.993 183.087 449.267 183.5C449.535 183.913 449.591 184.404 449.437 184.972C448.277 188.922 447.099 192.898 445.903 196.899C444.702 200.901 443.521 204.864 442.361 208.788C442.232 209.072 442.034 209.363 441.766 209.663C441.493 209.957 441.137 210.241 440.699 210.515C440.261 210.783 439.719 211.003 439.075 211.173C438.431 211.338 437.683 211.421 436.833 211.421Z" fill="#262626"/>
</g>
</g>
</g>
</g>
</g>
</g>
</g>
<mask id="mask0_215_524" style="mask-type:luminance" maskUnits="userSpaceOnUse" x="0" y="-1" width="808" height="507">
<path d="M807.724 -0.126343H0.598145V505.137H807.724V-0.126343Z" fill="white"/>
<path d="M469.474 86.2085H30.5264V225.791H469.474V86.2085Z" fill="black"/>
</mask>
<g mask="url(#mask0_215_524)">
<g clip-path="url(#clip12_215_524)">
<path d="M139.34 107.656C134.772 137.19 141.127 166.422 156.779 187.851C168.812 204.318 185.588 214.964 204.021 217.824C223.461 220.843 242.555 216.353 257.793 205.186C262.066 202.058 265.874 198.511 269.182 194.636C261.573 197.99 252.697 198.981 243.068 197.486C202.946 191.257 175.702 151.307 182.338 108.435C185.537 87.753 197.351 69.0023 215.599 55.6261C238.774 38.6417 270.226 31.7204 301.894 36.6353C327.488 40.607 362.402 57.0906 389.419 88.8128C389.419 88.8128 311.226 -46.3931 197.265 18.9959C160.519 40.0788 143.274 82.207 139.34 107.656Z" fill="#262626"/>
<path d="M362.056 208.88C367.737 179.538 362.484 150.089 347.65 128.084C336.243 111.172 319.882 99.9013 301.569 96.348C282.259 92.5958 263.008 96.3617 247.362 106.95C242.972 109.909 239.038 113.308 235.583 117.057C243.311 113.991 252.221 113.339 261.785 115.195C301.644 122.936 327.364 163.884 319.122 206.482C315.146 227.023 302.634 245.321 283.893 257.994C260.097 274.087 228.402 279.821 196.939 273.709C171.521 268.774 137.251 250.984 111.445 218.263C111.445 218.263 184.489 356.33 300.833 295.286C338.349 275.61 357.162 234.164 362.056 208.88Z" fill="#262626"/>
<path d="M201.737 269.326C231.224 273.902 260.406 267.536 281.801 251.855C298.241 239.803 308.87 223 311.729 204.537C314.739 185.07 310.26 165.942 299.107 150.683C295.984 146.402 292.443 142.588 288.574 139.272C291.926 146.893 292.912 155.786 291.419 165.427C285.201 205.614 245.318 232.902 202.508 226.258C181.862 223.055 163.138 211.219 149.79 192.945C132.833 169.732 125.92 138.226 130.827 106.507C134.792 80.8728 151.249 45.9026 182.921 18.845C182.921 18.845 47.9313 97.1643 113.216 211.308C134.265 248.113 176.325 265.382 201.737 269.326Z" fill="#262626"/>
<path d="M389.067 107.57C369.418 69.9969 328.039 51.1502 302.795 46.249C273.503 40.559 244.099 45.8203 222.129 60.6816C205.244 72.1062 193.991 88.4903 190.44 106.833C186.694 126.177 190.454 145.456 201.028 161.127C203.983 165.523 207.377 169.464 211.116 172.928C208.055 165.187 207.404 156.263 209.26 146.684C216.989 106.761 257.872 80.9997 300.398 89.2552C320.909 93.2372 339.175 105.773 351.827 124.544C367.898 148.378 373.616 180.121 367.521 211.634C362.59 237.093 344.832 271.418 312.16 297.262C312.16 297.262 450.005 224.101 389.067 107.57Z" fill="#262626"/>
</g>
</g>
</g>
</g>
</g>
<defs>
<clipPath id="clip0_215_524">
<rect width="500" height="312" fill="white"/>
</clipPath>
<clipPath id="clip1_215_524">
<rect width="498.804" height="312.253" fill="white" transform="translate(0.598145 -0.126343)"/>
</clipPath>
<clipPath id="clip2_215_524">
<rect width="498.804" height="312.253" fill="white" transform="translate(0.598145 -0.126343)"/>
</clipPath>
<clipPath id="clip3_215_524">
<rect width="399.043" height="111.252" fill="white" transform="translate(50.4785 100.374)"/>
</clipPath>
<clipPath id="clip4_215_524">
<rect width="399.043" height="111.252" fill="white" transform="translate(50.4785 100.374)"/>
</clipPath>
<clipPath id="clip5_215_524">
<rect width="399.043" height="111.252" fill="white" transform="translate(50.4785 100.374)"/>
</clipPath>
<clipPath id="clip6_215_524">
<rect width="399.043" height="111.252" fill="white" transform="translate(50.4785 100.374)"/>
</clipPath>
<clipPath id="clip7_215_524">
<rect width="399.043" height="111.252" fill="white" transform="translate(50.4785 100.374)"/>
</clipPath>
<clipPath id="clip8_215_524">
<rect width="399.043" height="60.004" fill="white" transform="translate(50.4785 100.374)"/>
</clipPath>
<clipPath id="clip9_215_524">
<rect width="399.043" height="60.004" fill="white" transform="translate(50.4785 100.374)"/>
</clipPath>
<clipPath id="clip10_215_524">
<rect width="399.043" height="37.0825" fill="white" transform="translate(50.4785 174.544)"/>
</clipPath>
<clipPath id="clip11_215_524">
<rect width="399.043" height="37.0825" fill="white" transform="translate(50.4785 174.544)"/>
</clipPath>
<clipPath id="clip12_215_524">
<rect width="309.231" height="309.726" fill="white" transform="translate(95.3843 1.13684)"/>
</clipPath>
</defs>
</svg>
