<svg width="593" height="593" viewBox="0 0 593 593" fill="none" xmlns="http://www.w3.org/2000/svg">
<path d="M514.25 104.516H183V141.816C182.893 143.554 182.104 145.181 180.805 146.341C179.506 147.501 177.801 148.102 176.062 148.013H171.762C171.762 154.15 171.229 162.363 169.064 160.703C166.9 159.043 165.21 152.164 164.409 147.924H163.757H125.212C123.467 148.021 121.755 147.424 120.45 146.263C119.144 145.102 118.351 143.471 118.244 141.727V104.516H78.7503C75.4148 104.516 72.112 105.174 69.0308 106.451C65.9496 107.728 63.1503 109.601 60.7931 111.96C58.436 114.32 56.5671 117.122 55.2933 120.205C54.0196 123.287 53.366 126.591 53.3699 129.926V477.365C53.3699 484.104 56.047 490.567 60.8123 495.333C65.5776 500.098 72.0408 502.775 78.7799 502.775H514.25C520.984 502.767 527.439 500.087 532.198 495.322C536.957 490.558 539.63 484.099 539.63 477.365V129.926C539.634 126.591 538.98 123.287 537.706 120.205C536.433 117.122 534.564 114.32 532.207 111.96C529.849 109.601 527.05 107.728 523.969 106.451C520.888 105.174 517.585 104.516 514.25 104.516ZM494.858 225.755L498.238 222.79C498.265 222.751 498.28 222.704 498.28 222.657C498.28 222.609 498.265 222.563 498.238 222.523L495.57 218.936C495.542 218.908 495.523 218.871 495.518 218.831C495.513 218.792 495.522 218.752 495.542 218.717C495.563 218.683 495.594 218.657 495.632 218.643C495.669 218.628 495.71 218.627 495.748 218.639L500.166 219.41C500.196 219.432 500.232 219.443 500.27 219.443C500.307 219.443 500.343 219.432 500.373 219.41L501.53 215.051C501.543 215.02 501.566 214.993 501.595 214.974C501.624 214.955 501.658 214.945 501.693 214.945C501.727 214.945 501.761 214.955 501.79 214.974C501.819 214.993 501.842 215.02 501.856 215.051L504.02 219.025C504.053 219.054 504.095 219.07 504.139 219.07C504.183 219.07 504.225 219.054 504.257 219.025L508.349 217.186C508.383 217.175 508.42 217.173 508.455 217.181C508.491 217.188 508.523 217.205 508.55 217.229C508.577 217.253 508.597 217.283 508.609 217.317C508.62 217.352 508.623 217.388 508.616 217.423L507.015 221.485C507.015 221.485 507.015 221.663 507.015 221.723L511.018 223.798C511.048 223.817 511.074 223.843 511.091 223.874C511.109 223.905 511.118 223.94 511.118 223.976C511.118 224.012 511.109 224.047 511.091 224.078C511.074 224.109 511.048 224.136 511.018 224.154L506.689 225.37C506.689 225.37 506.689 225.37 506.689 225.577L507.549 229.995C507.56 230.033 507.559 230.074 507.545 230.111C507.531 230.149 507.505 230.18 507.47 230.201C507.436 230.221 507.396 230.23 507.356 230.225C507.317 230.22 507.28 230.201 507.252 230.173L503.605 227.534C503.573 227.505 503.53 227.489 503.487 227.489C503.443 227.489 503.401 227.505 503.368 227.534L500.403 230.973C500.389 231.005 500.366 231.032 500.337 231.051C500.308 231.07 500.274 231.08 500.24 231.08C500.205 231.08 500.171 231.07 500.142 231.051C500.113 231.032 500.091 231.005 500.077 230.973L499.84 226.496C499.84 226.449 499.821 226.404 499.787 226.371C499.754 226.337 499.709 226.318 499.662 226.318H495.185C495.11 226.362 495.021 226.373 494.938 226.351C494.854 226.329 494.783 226.275 494.74 226.2C494.697 226.125 494.685 226.036 494.707 225.953C494.729 225.87 494.784 225.798 494.858 225.755ZM494.503 304.535L496.904 306.848C496.904 306.848 496.904 306.848 497.082 306.848L499.602 304.654H499.84L499.484 307.975L502.775 308.568C502.8 308.58 502.821 308.599 502.836 308.622C502.851 308.646 502.859 308.673 502.859 308.701C502.859 308.729 502.851 308.756 502.836 308.78C502.821 308.803 502.8 308.822 502.775 308.834L499.958 310.643V310.821L501.53 313.786C501.53 313.786 501.53 314.023 501.352 313.994L498.209 312.926H498.031L496.726 315.891C496.726 315.891 496.489 315.891 496.46 315.891L495.303 312.748L492.071 313.667L491.923 313.46L493.672 310.495C493.672 310.495 493.672 310.495 493.672 310.317L490.974 308.36V308.123L494.295 307.708L494.147 304.357L494.503 304.535ZM470.19 140.719L475.023 136.271C475.059 136.208 475.078 136.137 475.078 136.064C475.078 135.991 475.059 135.919 475.023 135.856L472.235 129.926C472.207 129.867 472.197 129.801 472.207 129.735C472.216 129.67 472.246 129.61 472.291 129.562C472.335 129.514 472.394 129.48 472.458 129.466C472.522 129.452 472.589 129.457 472.651 129.482L478.907 131.409C478.963 131.45 479.03 131.472 479.099 131.472C479.169 131.472 479.236 131.45 479.292 131.409L483.028 126.012C483.059 125.957 483.104 125.911 483.159 125.878C483.213 125.846 483.276 125.829 483.339 125.829C483.403 125.829 483.465 125.846 483.52 125.878C483.575 125.911 483.62 125.957 483.651 126.012L485.074 132.417C485.1 132.486 485.143 132.548 485.201 132.595C485.258 132.642 485.327 132.672 485.4 132.684L491.923 133.217C491.987 133.227 492.047 133.254 492.096 133.295C492.146 133.337 492.184 133.391 492.205 133.452C492.226 133.513 492.231 133.578 492.218 133.641C492.204 133.705 492.174 133.763 492.131 133.81L487.298 138.258C487.264 138.317 487.246 138.383 487.246 138.451C487.246 138.518 487.264 138.585 487.298 138.643L490.085 144.573C490.113 144.633 490.123 144.699 490.114 144.764C490.104 144.829 490.075 144.89 490.03 144.938C489.985 144.986 489.926 145.02 489.862 145.034C489.798 145.048 489.731 145.043 489.67 145.018L483.295 143.121C483.239 143.08 483.171 143.058 483.102 143.058C483.033 143.058 482.965 143.08 482.909 143.121L479.174 148.517C479.143 148.572 479.098 148.619 479.043 148.651C478.988 148.683 478.926 148.7 478.862 148.7C478.799 148.7 478.736 148.683 478.682 148.651C478.627 148.619 478.582 148.572 478.551 148.517L477.365 142.112C477.339 142.043 477.296 141.981 477.238 141.935C477.181 141.888 477.112 141.857 477.039 141.846L470.516 141.312C470.442 141.326 470.366 141.316 470.298 141.284C470.23 141.252 470.173 141.2 470.137 141.134C470.101 141.068 470.087 140.992 470.096 140.918C470.105 140.843 470.138 140.774 470.19 140.719ZM420.378 203.429L423.076 202.776L422.661 200.019C422.661 200.019 422.661 200.019 422.839 200.019L425.033 201.739H425.181L427.078 199.722H427.286V202.509L430.043 202.717V202.925L427.879 204.674L429.451 206.957V207.135L426.752 206.542C426.752 206.542 426.752 206.542 426.604 206.542L425.774 209.181H425.566L424.351 206.66L421.771 207.698C421.771 207.698 421.593 207.698 421.623 207.52L422.809 205.03L420.407 203.636C420.407 203.636 420.259 203.429 420.378 203.429ZM397.31 281.319L400.542 278.354C400.569 278.315 400.583 278.268 400.583 278.221C400.583 278.173 400.569 278.127 400.542 278.087L398.674 274.085C398.657 274.045 398.651 274.001 398.657 273.958C398.663 273.915 398.68 273.874 398.708 273.84C398.736 273.807 398.772 273.781 398.813 273.767C398.854 273.752 398.898 273.749 398.941 273.758L403.151 275.063C403.19 275.09 403.237 275.104 403.284 275.104C403.332 275.104 403.378 275.09 403.418 275.063L405.938 271.446C405.953 271.407 405.98 271.374 406.014 271.351C406.049 271.328 406.089 271.315 406.131 271.315C406.172 271.315 406.213 271.328 406.247 271.351C406.282 271.374 406.308 271.407 406.323 271.446L407.302 275.745C407.317 275.791 407.345 275.831 407.381 275.863C407.418 275.894 407.462 275.915 407.51 275.923L411.898 276.308C411.947 276.295 412 276.3 412.046 276.323C412.092 276.347 412.128 276.386 412.146 276.434C412.164 276.482 412.164 276.535 412.146 276.583C412.127 276.631 412.092 276.671 412.046 276.694L408.814 279.659C408.787 279.698 408.773 279.745 408.773 279.792C408.773 279.84 408.787 279.886 408.814 279.926L410.682 283.928C410.706 283.967 410.717 284.012 410.713 284.056C410.709 284.101 410.69 284.144 410.66 284.177C410.63 284.211 410.59 284.233 410.546 284.242C410.502 284.251 410.456 284.245 410.415 284.225L406.205 282.92C406.166 282.894 406.119 282.879 406.071 282.879C406.024 282.879 405.977 282.894 405.938 282.92L403.24 286.627C403.225 286.665 403.198 286.698 403.164 286.721C403.129 286.745 403.089 286.757 403.047 286.757C403.006 286.757 402.965 286.745 402.931 286.721C402.896 286.698 402.87 286.665 402.854 286.627L401.876 282.298C401.856 282.255 401.828 282.217 401.792 282.186C401.756 282.155 401.714 282.133 401.668 282.12L397.31 281.675C397.285 281.653 397.264 281.625 397.251 281.595C397.237 281.564 397.23 281.531 397.23 281.497C397.23 281.463 397.237 281.43 397.251 281.399C397.264 281.369 397.285 281.341 397.31 281.319ZM359.803 144.099L364.517 143.002C364.544 142.974 364.559 142.937 364.559 142.898C364.559 142.859 364.544 142.822 364.517 142.794L363.805 137.991C363.797 137.95 363.802 137.908 363.818 137.869C363.835 137.831 363.862 137.798 363.898 137.776C363.933 137.754 363.974 137.742 364.016 137.744C364.057 137.745 364.098 137.759 364.132 137.784L367.927 140.749C367.969 140.782 368.021 140.801 368.075 140.801C368.129 140.801 368.181 140.782 368.223 140.749L371.514 137.191C371.533 137.16 371.559 137.134 371.59 137.117C371.621 137.099 371.656 137.09 371.692 137.09C371.728 137.09 371.763 137.099 371.795 137.117C371.826 137.134 371.852 137.16 371.87 137.191V142.32C371.877 142.37 371.902 142.415 371.941 142.448C371.979 142.481 372.027 142.498 372.078 142.498L376.911 142.883C376.941 142.902 376.967 142.928 376.984 142.959C377.002 142.99 377.011 143.025 377.011 143.061C377.011 143.097 377.002 143.132 376.984 143.163C376.967 143.195 376.941 143.221 376.911 143.239L373.116 146.204C373.082 146.246 373.063 146.298 373.063 146.352C373.063 146.406 373.082 146.459 373.116 146.501L375.843 150.503C375.863 150.517 375.879 150.534 375.892 150.554C375.905 150.574 375.914 150.597 375.918 150.62C375.922 150.644 375.921 150.668 375.916 150.691C375.911 150.714 375.901 150.736 375.888 150.755C375.874 150.775 375.857 150.791 375.837 150.804C375.817 150.817 375.794 150.826 375.771 150.83C375.748 150.834 375.724 150.833 375.7 150.828C375.677 150.823 375.655 150.814 375.636 150.8L370.892 149.732C370.855 149.714 370.814 149.705 370.773 149.705C370.732 149.705 370.691 149.714 370.655 149.732L369.231 154.358C369.216 154.396 369.189 154.429 369.155 154.453C369.121 154.476 369.08 154.488 369.039 154.488C368.997 154.488 368.957 154.476 368.922 154.453C368.888 154.429 368.861 154.396 368.846 154.358L366.741 149.999C366.701 149.973 366.655 149.958 366.607 149.958C366.56 149.958 366.513 149.973 366.474 149.999L361.967 151.778C361.927 151.798 361.881 151.804 361.837 151.795C361.792 151.787 361.752 151.764 361.722 151.731C361.692 151.697 361.674 151.655 361.67 151.61C361.666 151.565 361.676 151.52 361.7 151.482L363.776 147.123C363.795 147.107 363.81 147.086 363.82 147.063C363.831 147.04 363.836 147.015 363.836 146.99C363.836 146.965 363.831 146.94 363.82 146.917C363.81 146.894 363.795 146.873 363.776 146.856L359.565 144.425C359.535 144.39 359.518 144.345 359.516 144.299C359.515 144.252 359.529 144.207 359.556 144.169C359.583 144.131 359.622 144.104 359.667 144.091C359.712 144.079 359.76 144.081 359.803 144.099ZM267.235 134.018C274.084 126.368 281.438 129.304 287.664 135.827C299.761 130.756 311.948 126.783 313.786 130.371C315.624 133.959 305.721 139.029 293.031 142.735C283.167 145.683 272.982 147.425 262.699 147.924C262.655 147.932 262.61 147.925 262.57 147.905C262.53 147.885 262.497 147.852 262.477 147.812C262.457 147.772 262.451 147.727 262.459 147.683C262.467 147.639 262.488 147.599 262.521 147.568C262.55 142.654 264.208 137.889 267.235 134.018ZM278.71 191.005L276.486 190.264L275.567 192.428H275.389L274.589 190.234L272.335 190.857L273.58 188.841L271.683 187.477V187.299L274.025 187.003V184.66C274.025 184.66 274.025 184.66 274.203 184.66L275.864 186.291L277.613 184.749H277.791L277.554 187.091L279.866 187.507C279.866 187.507 279.866 187.655 279.866 187.684L277.909 188.959L278.71 191.005ZM144.959 210.841L147.657 210.189L147.242 207.431C147.242 207.431 147.242 207.253 147.42 207.431L149.614 209.151L151.511 207.135H151.719V209.922L154.476 210.13V210.337L152.312 212.086L153.883 214.37V214.547L151.185 213.954L150.355 216.623H150.147L148.932 214.103C148.932 214.103 148.932 214.103 148.784 214.103L146.204 215.14C146.204 215.14 146.026 215.14 146.056 214.962L147.242 212.472L144.84 211.078C144.84 211.078 144.84 210.841 144.959 210.841ZM70.982 145.285L73.6801 144.633L73.265 141.875C73.265 141.875 73.265 141.875 73.4429 141.875L75.637 143.595C75.637 143.595 75.637 143.595 75.7853 143.595L77.6829 141.579H77.8904V144.366L80.6479 144.573V144.781L78.4834 146.53L80.0549 148.813V148.991L77.3567 148.398C77.3567 148.398 77.3567 148.398 77.2085 148.398L76.4969 151.215H76.2893L75.0737 148.695H74.9254L72.3459 149.732C72.3459 149.732 72.168 149.732 72.3459 149.555L73.5319 147.064L71.1302 145.67C71.1302 145.67 70.8634 145.285 70.982 145.285ZM79.3729 286.508L77.3271 288.376C77.3139 288.404 77.3071 288.434 77.3071 288.465C77.3071 288.496 77.3139 288.526 77.3271 288.554L78.5131 291.044C78.5262 291.071 78.5312 291.1 78.5277 291.129C78.5241 291.158 78.5121 291.185 78.4931 291.207C78.4741 291.229 78.449 291.246 78.4209 291.253C78.3928 291.261 78.363 291.261 78.3352 291.252L75.6963 290.422C75.6963 290.422 75.6963 290.422 75.5184 290.422L73.947 292.675H73.7098L73.0871 289.977L70.3297 289.74V289.503L72.3459 287.635V287.457L71.1895 284.966C71.1463 284.97 71.1032 284.957 71.0699 284.929C71.0365 284.901 71.0156 284.861 71.0116 284.818C71.0077 284.775 71.0211 284.732 71.0489 284.698C71.0767 284.665 71.1166 284.644 71.1599 284.64L73.7987 285.47C73.7987 285.47 73.7987 285.47 73.947 285.47L75.5184 283.187C75.5306 283.162 75.5495 283.141 75.5731 283.126C75.5967 283.111 75.624 283.104 75.6519 283.104C75.6797 283.104 75.707 283.111 75.7306 283.126C75.7542 283.141 75.7732 283.162 75.7853 283.187L76.3783 285.885L79.1357 286.093C79.1869 286.061 79.2484 286.052 79.3068 286.065C79.3651 286.079 79.4156 286.116 79.4471 286.167C79.4785 286.218 79.4884 286.28 79.4745 286.338C79.4606 286.396 79.4241 286.447 79.3729 286.478V286.508ZM103.093 466.691L98.26 471.138C98.223 471.196 98.2033 471.263 98.2033 471.331C98.2033 471.4 98.223 471.466 98.26 471.524L101.047 477.454C101.071 477.515 101.077 477.58 101.066 477.644C101.054 477.708 101.026 477.768 100.983 477.817C100.94 477.866 100.885 477.902 100.823 477.922C100.761 477.941 100.695 477.944 100.632 477.928L94.3758 476.001C94.3199 475.96 94.2524 475.938 94.1831 475.938C94.1138 475.938 94.0463 475.96 93.9904 476.001L90.2545 481.397C90.2237 481.453 90.1786 481.499 90.1239 481.532C90.0691 481.564 90.0067 481.581 89.9432 481.581C89.8796 481.581 89.8172 481.564 89.7625 481.532C89.7077 481.499 89.6626 481.453 89.6318 481.397L88.2086 474.993C88.186 474.922 88.1432 474.858 88.0853 474.811C88.0273 474.764 87.9569 474.734 87.8825 474.726L81.3595 474.163C81.2956 474.16 81.234 474.138 81.1824 474.1C81.1308 474.062 81.0915 474.01 81.0693 473.95C81.0472 473.89 81.0432 473.824 81.0579 473.762C81.0726 473.7 81.1053 473.643 81.1519 473.599L85.9552 469.152C85.9987 469.091 86.022 469.019 86.022 468.944C86.022 468.87 85.9987 468.797 85.9552 468.737L83.1681 462.807C83.1447 462.746 83.1383 462.68 83.1495 462.617C83.1608 462.553 83.1894 462.493 83.2322 462.444C83.2749 462.395 83.3302 462.359 83.3921 462.339C83.454 462.32 83.5201 462.317 83.5832 462.332L89.8394 464.289C89.9109 464.313 89.9883 464.311 90.0586 464.284C90.1288 464.257 90.1876 464.206 90.2248 464.141L93.9607 458.774C93.9868 458.718 94.0285 458.67 94.0811 458.636C94.1336 458.602 94.1948 458.584 94.2572 458.584C94.3197 458.584 94.3808 458.602 94.4334 458.636C94.486 458.67 94.5277 458.718 94.5537 458.774L96.0066 465.179C96.0306 465.247 96.0746 465.306 96.1328 465.348C96.191 465.39 96.2608 465.414 96.3327 465.416L102.856 465.979C102.946 465.94 103.049 465.938 103.14 465.974C103.232 466.011 103.306 466.082 103.345 466.172C103.384 466.263 103.386 466.365 103.35 466.457C103.314 466.548 103.243 466.622 103.152 466.661L103.093 466.691ZM118.926 359.625L115.101 363.153C115.065 363.2 115.046 363.257 115.046 363.316C115.046 363.375 115.065 363.433 115.101 363.479L117.325 368.194C117.353 368.241 117.366 368.297 117.362 368.352C117.357 368.408 117.336 368.46 117.3 368.503C117.264 368.545 117.215 368.576 117.161 368.589C117.107 368.603 117.051 368.599 116.999 368.579L112.018 367.037C111.968 367.009 111.912 366.994 111.855 366.994C111.797 366.994 111.741 367.009 111.691 367.037L108.726 371.337C108.7 371.379 108.663 371.415 108.619 371.439C108.575 371.464 108.525 371.477 108.474 371.477C108.424 371.477 108.374 371.464 108.33 371.439C108.286 371.415 108.249 371.379 108.222 371.337L107.066 366.237C107.059 366.179 107.031 366.126 106.987 366.088C106.943 366.05 106.887 366.029 106.829 366.029L101.64 365.585C101.59 365.575 101.543 365.553 101.504 365.52C101.465 365.487 101.436 365.445 101.418 365.397C101.4 365.35 101.395 365.298 101.402 365.248C101.41 365.198 101.431 365.15 101.462 365.11L105.317 361.582C105.345 361.532 105.36 361.476 105.36 361.419C105.36 361.361 105.345 361.305 105.317 361.256L103.093 356.541C103.064 356.493 103.052 356.438 103.056 356.383C103.061 356.327 103.082 356.274 103.118 356.232C103.154 356.19 103.203 356.159 103.256 356.146C103.31 356.132 103.367 356.136 103.419 356.156L108.4 357.698C108.444 357.727 108.496 357.743 108.549 357.743C108.601 357.743 108.653 357.727 108.697 357.698L111.662 353.398C111.684 353.355 111.718 353.318 111.76 353.293C111.802 353.267 111.85 353.254 111.899 353.254C111.948 353.254 111.996 353.267 112.038 353.293C112.08 353.318 112.114 353.355 112.136 353.398L113.293 358.498C113.3 358.556 113.328 358.609 113.372 358.647C113.415 358.685 113.472 358.706 113.53 358.706L118.748 359.15C118.803 359.142 118.859 359.151 118.909 359.175C118.958 359.2 118.999 359.24 119.025 359.289C119.051 359.337 119.061 359.393 119.054 359.448C119.047 359.503 119.023 359.555 118.985 359.595L118.926 359.625ZM204.585 471.168L199.515 472.325C199.457 472.332 199.404 472.36 199.366 472.404C199.328 472.447 199.307 472.504 199.307 472.562L198.862 477.78C198.859 477.834 198.839 477.885 198.806 477.927C198.772 477.969 198.727 478 198.676 478.016C198.625 478.032 198.57 478.032 198.518 478.017C198.467 478.001 198.422 477.97 198.388 477.928L194.83 474.103C194.788 474.07 194.736 474.051 194.682 474.051C194.628 474.051 194.576 474.07 194.534 474.103L189.79 476.327C189.743 476.346 189.691 476.352 189.642 476.343C189.592 476.334 189.546 476.311 189.508 476.277C189.471 476.243 189.444 476.199 189.431 476.15C189.418 476.101 189.419 476.049 189.434 476.001L190.976 470.99C191.002 470.945 191.015 470.894 191.015 470.842C191.015 470.79 191.002 470.739 190.976 470.694L186.676 467.729C186.624 467.711 186.579 467.677 186.547 467.631C186.514 467.586 186.497 467.532 186.497 467.477C186.497 467.421 186.514 467.367 186.547 467.322C186.579 467.277 186.624 467.243 186.676 467.225L191.776 466.068C191.834 466.061 191.887 466.033 191.925 465.989C191.963 465.946 191.984 465.889 191.984 465.831L192.428 460.642C192.426 460.586 192.442 460.531 192.473 460.484C192.504 460.438 192.549 460.402 192.601 460.382C192.654 460.362 192.711 460.36 192.765 460.375C192.82 460.389 192.868 460.421 192.903 460.465L196.431 464.319C196.483 464.341 196.538 464.352 196.594 464.352C196.65 464.352 196.706 464.341 196.757 464.319L201.472 462.095C201.519 462.067 201.575 462.054 201.63 462.058C201.686 462.063 201.738 462.085 201.781 462.121C201.823 462.157 201.854 462.205 201.867 462.259C201.881 462.313 201.877 462.37 201.857 462.421L200.315 467.403C200.282 467.445 200.263 467.497 200.263 467.551C200.263 467.605 200.282 467.657 200.315 467.699L204.615 470.664C204.666 470.685 204.71 470.722 204.739 470.769C204.769 470.816 204.783 470.871 204.78 470.927C204.777 470.982 204.756 471.035 204.721 471.079C204.686 471.122 204.639 471.153 204.585 471.168ZM285.263 433.542L282.298 435.351C282.298 435.351 282.298 435.351 282.298 435.529L283.899 438.494C283.899 438.494 283.899 438.731 283.721 438.672L280.548 437.604L279.214 440.569C279.214 440.569 279.006 440.569 278.977 440.569L277.82 437.456H277.643L274.44 438.346C274.44 438.346 274.203 438.346 274.44 438.138L276.16 435.173V434.965L273.462 433.009V432.771L276.783 432.356L276.634 429.006H276.872L279.244 431.319C279.274 431.34 279.31 431.352 279.347 431.352C279.385 431.352 279.421 431.34 279.451 431.319L281.971 429.095C281.971 429.095 282.209 429.095 282.179 429.095L281.853 432.416C281.84 432.443 281.833 432.474 281.833 432.505C281.833 432.535 281.84 432.566 281.853 432.593L285.144 433.187C285.144 433.187 285.47 433.483 285.381 433.542H285.263ZM367.66 482.02L364.695 483.829V484.007L366.266 486.972C366.279 486.998 366.285 487.027 366.281 487.056C366.277 487.085 366.265 487.112 366.246 487.134C366.227 487.157 366.202 487.173 366.174 487.181C366.146 487.189 366.116 487.188 366.088 487.179L362.946 486.112H362.768L361.463 489.077C361.463 489.077 361.226 489.077 361.196 489.077L360.04 485.934L356.808 486.823V486.616L358.557 483.651V483.473L355.859 481.516C355.834 481.504 355.813 481.485 355.798 481.461C355.783 481.438 355.776 481.41 355.776 481.383C355.776 481.355 355.783 481.327 355.798 481.304C355.813 481.28 355.834 481.261 355.859 481.249L359.18 480.834V477.513H359.417L361.819 479.856C361.819 479.856 361.819 479.856 361.997 479.856L364.517 477.662H364.754L364.398 480.982V481.131L367.69 481.724C367.729 481.727 367.765 481.747 367.79 481.777C367.815 481.808 367.827 481.847 367.823 481.887C367.819 481.926 367.8 481.962 367.769 481.987C367.738 482.012 367.699 482.024 367.66 482.02ZM468.203 415.634L467.966 415.456C466.246 414.24 459.486 409.733 449.257 402.884H448.931L357.371 364.695C355 363.434 352.385 362.699 349.703 362.54C347.022 362.382 344.338 362.803 341.835 363.776V363.954C345.321 366.297 348.56 368.989 351.501 371.989L421.534 446.618L402.825 465.505L322.622 407.213C315.329 402.692 306.765 400.663 298.22 401.431C268.036 404.396 227.06 408.518 207.52 402.736C198.154 399.642 190.006 393.664 184.245 385.658C178.086 377.358 173.448 368.032 170.547 358.113V357.935L169.805 358.172C162.304 301.214 171.258 269.222 171.258 269.222C171.258 269.222 137.279 308.36 124.174 303.794C107.422 298.101 88.9499 228.305 88.9499 228.305H89.365V227.831C88.5941 225.31 82.16 218.936 76.6155 215.526C73.6505 213.806 70.5076 212.561 68.6989 211.345C68.3992 211.135 68.1545 210.855 67.9856 210.53C67.8167 210.205 67.7285 209.844 67.7285 209.477C67.7285 209.111 67.8167 208.75 67.9856 208.425C68.1545 208.1 68.3992 207.82 68.6989 207.609L68.3431 207.105C67.9709 206.766 67.6912 206.338 67.5303 205.86C67.3695 205.383 67.3329 204.873 67.424 204.377C67.9873 202.658 70.7744 202.243 74.2435 202.806V202.124C75.044 199.337 78.4241 200.019 79.9363 200.286C88.09 201.768 98.764 210.367 99.357 212.383L99.8314 212.917C100.765 212.228 101.757 211.623 102.796 211.108C103.123 210.396 99.3274 202.213 103.182 201.353C104.635 201.057 105.969 202.658 106.503 203.784C107.6 205.979 110.09 214.162 107.481 227.712H108.222C121.417 260.327 129.274 273.195 130.193 273.165C131.112 273.136 157.53 243.13 168.026 230.885C173.956 224.095 196.046 224.688 196.046 224.688C196.498 222.333 197.795 220.224 199.693 218.758L199.426 218.283C199.426 200.73 198.477 184.779 199.96 167.256V167.018C198.748 167.483 197.426 167.579 196.159 167.294C194.893 167.009 193.74 166.356 192.844 165.417C189.879 161.652 194.563 148.398 201.501 154.417C202.45 147.687 202.717 141.193 208.113 136.627C226.2 121.802 240.728 149.821 243.693 160.822C246.302 171.08 231.833 194.207 227.653 195.838C227.168 196.045 226.66 196.194 226.14 196.283C227.653 202.954 228.068 211.108 230.914 217.038V217.335C232.192 217.813 233.327 218.608 234.214 219.646C235.101 220.683 235.71 221.928 235.984 223.265C235.984 223.265 254.041 223.917 259.437 226.378C268.659 230.618 294.158 269.311 295.017 269.341C295.877 269.37 305.662 255.85 318.737 223.265H319.568C317.166 209.477 319.953 200.819 321.08 198.625C321.643 197.499 323.007 195.927 324.46 196.253C328.285 197.113 324.282 205.297 324.46 206.008C324.46 206.245 325.853 206.601 327.069 207.58L327.899 207.372C328.522 205.356 339.403 197.024 347.617 195.72C349.129 195.482 352.509 194.889 353.25 197.677V198.358C356.749 197.884 359.506 198.359 360.04 200.078C360.119 200.574 360.07 201.082 359.899 201.554C359.728 202.025 359.44 202.446 359.061 202.776L358.231 203.073C358.615 203.219 358.95 203.469 359.2 203.795C359.451 204.12 359.606 204.509 359.649 204.917C359.692 205.326 359.621 205.738 359.444 206.108C359.267 206.479 358.991 206.793 358.646 207.016C356.808 208.291 353.547 209.359 350.641 211.019C345.007 214.281 338.336 221.248 337.535 223.739V223.976H337.951C337.951 223.976 320.161 290.273 303.883 297.123C287.605 303.972 255.197 265.071 255.197 265.071C253.774 305.603 264.952 318.441 270.022 329.204C331.991 306.966 357.668 309.309 380.854 323.037C402.914 336.112 464.141 380.943 464.141 380.943L449.049 402.677L449.257 402.825L464.882 380.617C466.661 378.927 482.139 370.744 490.678 360.929C494.769 356.215 500.937 353.309 506.689 358.973L511.196 361.938L472.651 418.48L468.203 415.634ZM516.384 433.038L514.22 434.788V434.936L515.762 437.219V437.397L513.063 436.804H512.915L512.115 439.472H511.877L510.662 436.982C510.662 436.982 510.662 436.982 510.514 436.982L507.934 438.019C507.934 438.019 507.756 438.019 507.934 437.842L509.15 435.351C509.15 435.351 509.15 435.351 509.15 435.203L506.748 433.809V433.602L509.446 432.949L509.031 430.192H509.239L511.403 431.912L513.301 429.895H513.508V432.682L516.266 432.89L516.444 433.038H516.384Z" fill="black"/>
<path d="M506.57 358.913L468.025 415.456C466.306 414.24 459.545 409.733 449.316 402.884H448.99V402.736L449.197 402.884L464.823 380.676C466.602 378.986 482.079 370.803 490.618 360.989C494.651 356.156 500.818 353.25 506.57 358.913Z" fill="black"/>
<path d="M107.778 227.771H108.519C121.713 260.386 129.57 273.254 130.49 273.225C131.409 273.195 157.53 243.13 168.026 230.885C173.956 224.095 196.046 224.688 196.046 224.688C196.499 222.333 197.795 220.224 199.693 218.758C201.916 217.364 220.062 214.903 230.084 217.216C230.298 217.248 230.508 217.307 230.707 217.394C231.984 217.873 233.12 218.668 234.006 219.705C234.893 220.742 235.502 221.987 235.777 223.324C235.777 223.324 253.834 223.976 259.23 226.437C268.451 230.677 293.95 269.37 294.81 269.4C295.67 269.43 305.454 255.909 318.53 223.324H319.36L337.565 223.917H337.98C337.98 223.917 320.19 290.214 303.912 297.063C287.635 303.913 255.197 265.071 255.197 265.071C253.774 305.603 264.952 318.441 270.022 329.204L170.725 357.964L169.983 358.202C162.482 301.244 171.436 269.252 171.436 269.252C171.436 269.252 137.279 308.36 124.174 303.794C107.422 298.101 88.95 228.305 88.95 228.305H89.365L107.778 227.771Z" fill="black"/>
<path d="M341.835 363.657C344.338 362.685 347.022 362.263 349.703 362.422C352.385 362.58 355 363.315 357.371 364.576L448.842 402.766V402.617L463.934 380.884C463.934 380.884 402.706 336.053 380.647 322.978C357.46 309.25 331.339 306.581 269.37 328.908" stroke="black" stroke-width="0.86" stroke-linecap="round" stroke-linejoin="round"/>
<path d="M170.547 358.142C173.448 368.062 178.086 377.388 184.245 385.687C190.014 393.699 198.173 399.678 207.55 402.766C226.971 408.547 268.066 404.485 298.249 401.461C306.795 400.692 315.359 402.722 322.651 407.243L402.825 465.505L421.416 446.47L351.382 371.841C348.441 368.841 345.203 366.149 341.716 363.805C327.514 353.902 297.597 339.344 251.491 347.261" stroke="black" stroke-width="0.86" stroke-linecap="round" stroke-linejoin="round"/>
<path d="M234.324 165.18C235.012 165.18 235.569 164.623 235.569 163.935C235.569 163.247 235.012 162.69 234.324 162.69C233.636 162.69 233.079 163.247 233.079 163.935C233.079 164.623 233.636 165.18 234.324 165.18Z" fill="black"/>
<path d="M217.69 164.913C218.378 164.913 218.936 164.356 218.936 163.668C218.936 162.98 218.378 162.423 217.69 162.423C217.002 162.423 216.445 162.98 216.445 163.668C216.445 164.356 217.002 164.913 217.69 164.913Z" fill="black"/>
<path d="M136.687 121.387H141.668" stroke="black" stroke-width="0.86" stroke-linecap="round" stroke-linejoin="round"/>
<path d="M136.686 121.387V104.546L125.479 121.387H136.686Z" stroke="black" stroke-width="0.86" stroke-linecap="round" stroke-linejoin="round"/>
<path d="M136.687 131.32V121.387" stroke="black" stroke-width="0.86" stroke-linecap="round" stroke-linejoin="round"/>
<path d="M171.703 121.387H176.684" stroke="black" stroke-width="0.86" stroke-linecap="round" stroke-linejoin="round"/>
<path d="M171.703 121.387V104.576L160.495 121.387H171.703Z" stroke="black" stroke-width="0.86" stroke-linecap="round" stroke-linejoin="round"/>
<path d="M171.703 131.32V121.387" stroke="black" stroke-width="0.86" stroke-linecap="round" stroke-linejoin="round"/>
<path d="M151.007 131.349C154.544 131.349 157.412 125.323 157.412 117.888C157.412 110.454 154.544 104.427 151.007 104.427C147.47 104.427 144.603 110.454 144.603 117.888C144.603 125.323 147.47 131.349 151.007 131.349Z" stroke="black" stroke-width="0.86" stroke-linecap="round" stroke-linejoin="round"/>
<path d="M201.62 154.18C202.569 147.449 202.836 140.956 208.232 136.39C226.318 121.565 240.847 149.584 243.812 160.584C246.421 170.843 231.952 193.97 227.771 195.601C227.286 195.807 226.779 195.957 226.259 196.046C220.151 197.172 212.383 191.747 209.744 186.35" stroke="black" stroke-width="0.86" stroke-miterlimit="10" stroke-linecap="round"/>
<path d="M199.426 218.283C199.426 200.73 198.477 184.779 199.96 167.256" stroke="black" stroke-width="0.86" stroke-miterlimit="10"/>
<path d="M225.874 195.69L226.052 196.402C227.564 203.073 227.979 211.227 230.825 217.157" stroke="black" stroke-width="0.86" stroke-miterlimit="10"/>
<path d="M203.962 157.382C203.255 156.28 202.396 155.282 201.412 154.417C194.474 148.487 189.879 161.652 192.755 165.417C193.651 166.356 194.804 167.009 196.071 167.294C197.337 167.579 198.659 167.483 199.871 167.018C200.432 166.847 200.977 166.629 201.501 166.366" stroke="black" stroke-width="0.86" stroke-miterlimit="10" stroke-linecap="round"/>
<path d="M262.462 147.509C262.521 142.608 264.199 137.865 267.235 134.018C274.085 126.368 281.438 129.304 287.664 135.827C289.532 137.847 291.228 140.019 292.734 142.32" stroke="black" stroke-width="0.86" stroke-miterlimit="10" stroke-linecap="round"/>
<path d="M287.605 135.827C276.546 140.452 265.545 145.997 262.521 147.538C262.489 147.569 262.467 147.609 262.459 147.653C262.451 147.697 262.457 147.743 262.477 147.783C262.497 147.823 262.53 147.855 262.57 147.875C262.61 147.895 262.655 147.902 262.699 147.894C272.942 147.386 283.087 145.644 292.912 142.705C305.721 138.999 315.654 134.018 313.667 130.341C311.681 126.665 299.762 130.757 287.605 135.827Z" stroke="black" stroke-width="0.86" stroke-miterlimit="10"/>
<path d="M220.774 157.145C220.28 156.673 219.692 156.311 219.048 156.083C218.404 155.855 217.719 155.766 217.038 155.822C216.357 155.878 215.696 156.078 215.098 156.408C214.5 156.738 213.979 157.192 213.569 157.738" stroke="black" stroke-width="0.86" stroke-miterlimit="10" stroke-linecap="round"/>
<path d="M236.577 157.382C236.083 156.908 235.494 156.543 234.849 156.313C234.204 156.082 233.517 155.99 232.834 156.043C232.151 156.097 231.487 156.294 230.885 156.621C230.283 156.949 229.758 157.4 229.343 157.945" stroke="black" stroke-width="0.86" stroke-miterlimit="10" stroke-linecap="round"/>
<path d="M219.973 185.609C221.367 183 226.289 182.17 227.801 184.808" stroke="black" stroke-width="0.86" stroke-linecap="round" stroke-linejoin="round"/>
<path d="M200.108 159.754C198.838 160.908 197.197 161.57 195.482 161.622" stroke="black" stroke-width="0.86" stroke-miterlimit="10" stroke-linecap="round"/>
<path d="M229.254 158.094C227.801 161.711 229.521 167.404 230.054 171.14C230.44 173.719 230.974 178.671 226.585 177.07" stroke="black" stroke-width="0.86" stroke-miterlimit="10" stroke-linecap="round"/>
<path d="M204.793 361.73C205.178 374.954 195.72 382.722 184.245 385.45C181.57 386.1 178.84 386.497 176.091 386.636" stroke="black" stroke-width="0.86" stroke-miterlimit="10" stroke-linecap="round"/>
<path d="M468.262 415.634L472.532 418.539L511.107 361.997L506.57 358.913L506.422 358.824L467.907 415.367H467.877L467.966 415.426L468.025 415.456L468.262 415.634Z" fill="black" stroke="white" stroke-width="0.86" stroke-miterlimit="10"/>
<path d="M172.178 148.013H176.062C177.801 148.102 179.506 147.501 180.805 146.341C182.104 145.181 182.893 143.555 183 141.816V96.3625C182.9 94.6211 182.114 92.9904 180.813 91.8285C179.512 90.6666 177.803 90.0685 176.062 90.1657H125.123C123.379 90.0684 121.666 90.6655 120.361 91.8267C119.055 92.9878 118.262 94.6186 118.155 96.3625V141.816C118.262 143.56 119.055 145.191 120.361 146.352C121.666 147.513 123.379 148.11 125.123 148.013H163.668" stroke="black" stroke-width="0.86" stroke-linecap="round" stroke-linejoin="round"/>
<path d="M163.816 144.336C163.816 144.336 164.024 145.819 164.409 147.894C165.21 152.134 166.811 158.894 169.064 160.673C171.318 162.452 171.703 154.121 171.762 147.983C171.762 144.544 171.762 141.727 171.762 141.727" stroke="black" stroke-width="0.86" stroke-linecap="round" stroke-linejoin="round"/>
<path d="M89.4836 227.89C88.7127 225.37 82.2787 218.995 76.7341 215.585C73.7691 213.865 70.6262 212.62 68.8176 211.405C68.5178 211.194 68.2731 210.914 68.1042 210.589C67.9353 210.264 67.8472 209.903 67.8472 209.537C67.8472 209.17 67.9353 208.809 68.1042 208.484C68.2731 208.159 68.5178 207.879 68.8176 207.669C69.7388 207.226 70.7751 207.081 71.7826 207.254C77.2696 208.633 82.3507 211.295 86.6076 215.022" stroke="black" stroke-width="0.86" stroke-linecap="round" stroke-linejoin="round"/>
<path d="M99.624 212.442C99.031 210.426 88.357 201.828 80.2033 200.345C78.6911 200.078 75.311 199.396 74.5105 202.183" stroke="black" stroke-width="0.86" stroke-linecap="round" stroke-linejoin="round"/>
<path d="M89.543 210.752C85.4931 206.534 80.1699 203.763 74.3918 202.865C70.9228 202.302 68.1357 202.865 67.5723 204.437C67.4812 204.932 67.5178 205.442 67.6787 205.92C67.8395 206.397 68.1192 206.825 68.4915 207.165" stroke="black" stroke-width="0.86" stroke-linecap="round" stroke-linejoin="round"/>
<path d="M98.3787 218.105C98.1915 217.175 98.2519 216.211 98.5536 215.311C98.8554 214.411 99.3881 213.606 100.098 212.976C101.032 212.288 102.024 211.682 103.063 211.167C103.39 210.456 99.5943 202.272 103.449 201.412C104.902 201.116 106.117 202.776 106.77 203.844C107.956 205.801 110.565 221.99 106.592 231.863" stroke="black" stroke-width="0.86" stroke-linecap="round" stroke-linejoin="round"/>
<path d="M337.773 223.798C338.573 221.308 345.245 214.34 350.878 211.078C353.843 209.418 357.045 208.351 358.884 207.076C359.228 206.852 359.504 206.538 359.681 206.168C359.858 205.797 359.929 205.385 359.886 204.977C359.843 204.568 359.688 204.18 359.438 203.854C359.187 203.529 358.852 203.279 358.469 203.132C357.653 202.839 356.778 202.747 355.919 202.865C350.418 204.126 345.296 206.677 340.975 210.307" stroke="black" stroke-width="0.86" stroke-linecap="round" stroke-linejoin="round"/>
<path d="M328.048 207.55C328.67 205.534 339.552 197.202 347.765 195.898C349.277 195.66 352.657 195.067 353.398 197.854" stroke="black" stroke-width="0.86" stroke-linecap="round" stroke-linejoin="round"/>
<path d="M338.158 205.949C342.314 201.84 347.695 199.196 353.487 198.418C356.986 197.943 359.743 198.418 360.277 200.137C360.356 200.633 360.307 201.141 360.136 201.613C359.965 202.085 359.677 202.506 359.299 202.836" stroke="black" stroke-width="0.86" stroke-linecap="round" stroke-linejoin="round"/>
<path d="M329.115 213.124C329.337 212.118 329.271 211.071 328.925 210.1C328.579 209.13 327.966 208.277 327.158 207.639C325.942 206.661 324.638 206.305 324.549 206.068C324.223 205.356 328.225 197.173 324.549 196.313C323.096 195.987 321.584 197.558 321.169 198.685C318.164 207.286 317.885 216.604 320.368 225.37" stroke="black" stroke-width="0.86" stroke-linecap="round" stroke-linejoin="round"/>
<path d="M182.763 104.516H514.25C517.585 104.516 520.888 105.174 523.969 106.451C527.05 107.728 529.849 109.601 532.207 111.96C534.564 114.32 536.433 117.122 537.706 120.205C538.98 123.287 539.634 126.591 539.63 129.926V477.365C539.63 484.104 536.953 490.567 532.187 495.333C527.422 500.098 520.959 502.775 514.22 502.775H78.7503C72.0163 502.767 65.5607 500.087 60.8018 495.322C56.0429 490.558 53.3699 484.099 53.3699 477.365V129.926C53.366 126.588 54.0206 123.282 55.2962 120.198C56.5718 117.113 58.4433 114.31 60.8036 111.95C63.1639 109.59 65.9667 107.718 69.0513 106.443C72.136 105.167 75.4419 104.512 78.7799 104.516H117.977" stroke="black" stroke-width="0.86" stroke-linecap="round" stroke-linejoin="round"/>
<path d="M466.454 414.388C464.734 413.173 449.82 401.016 449.761 401.105" stroke="white" stroke-width="0.86" stroke-linecap="square" stroke-linejoin="bevel"/>
<path d="M449.583 400.927L462.985 381.833C464.764 380.143 482.02 370.684 490.559 360.87C494.651 356.156 500.818 353.25 506.57 358.913L468.262 415.634L468.025 415.456" stroke="white" stroke-width="0.86" stroke-linecap="square" stroke-linejoin="bevel"/>
<path d="M418.925 481.397L422.572 485.074L471.287 437.041L467.432 433.127L467.343 433.009L418.628 481.071H418.599L418.688 481.16L418.717 481.19L418.925 481.397Z" fill="black" stroke="white" stroke-width="0.86" stroke-miterlimit="10"/>
<path d="M417.383 479.826C415.93 478.314 403.655 463.519 403.596 463.578" stroke="white" stroke-width="0.86" stroke-linecap="square" stroke-linejoin="bevel"/>
<path d="M403.448 463.37L420.259 447.211C422.335 445.906 441.014 439.976 451.332 431.971C456.284 428.116 462.896 426.456 467.432 433.127L418.925 481.397L418.717 481.19" stroke="white" stroke-width="0.86" stroke-linecap="square" stroke-linejoin="bevel"/>
<path d="M255.197 265.071C255.197 265.071 287.812 304.031 304.12 297.182C320.427 290.333 337.654 223.709 337.654 223.709L319.419 223.116C306.225 255.731 295.699 269.518 294.899 269.489C294.098 269.459 268.451 230.766 259.319 226.526C253.922 224.065 235.866 223.413 235.866 223.413C235.591 222.076 234.982 220.831 234.095 219.794C233.209 218.757 232.073 217.962 230.795 217.483C230.597 217.396 230.387 217.336 230.173 217.305C220.151 214.992 202.005 217.305 199.782 218.847C197.884 220.313 196.587 222.422 196.135 224.777C196.135 224.777 173.986 224.184 168.115 230.973C157.53 243.13 131.438 273.195 130.46 273.225C129.481 273.254 107.748 228.513 107.748 228.513L89.958 228.987C89.958 228.987 107.481 298.101 124.233 303.794C137.279 308.36 171.229 269.341 171.229 269.341C171.229 269.341 162.334 301.244 169.776 358.291L170.517 358.053L269.815 329.115C264.834 318.293 253.656 305.395 254.99 264.982V264.774" stroke="white" stroke-width="0.86" stroke-linecap="round" stroke-linejoin="round"/>
</svg>
