<svg width="690" height="690" viewBox="0 0 690 690" fill="none" xmlns="http://www.w3.org/2000/svg">
<path d="M599.886 246.675C594.711 236.049 561.557 189.095 554.277 183.126C551.118 180.821 547.628 179.007 543.927 177.744L543.651 178.503C538.281 204.56 543.334 231.683 557.727 254.058C562.902 262.683 567.801 268.652 569.733 271.55C572.148 275.621 567.283 281.279 559.659 286.937C547.179 295.757 533.491 302.729 519.018 307.637V307.361C519.777 305.774 515.05 301.254 509.461 300.909H508.53V304.877C506.598 310.431 496.627 309.465 492.28 308.741C490.797 308.465 483.793 305.601 483.793 303.462V303.117C483.269 303.065 482.74 303.12 482.238 303.28C481.736 303.44 481.272 303.701 480.875 304.047C480.477 304.392 480.155 304.816 479.927 305.291C479.699 305.766 479.571 306.282 479.55 306.809C479.73 307.967 480.18 309.067 480.863 310.02C481.546 310.972 482.444 311.751 483.483 312.294C483.023 312.193 482.547 312.194 482.087 312.296C481.628 312.397 481.196 312.598 480.821 312.884C480.447 313.169 480.139 313.533 479.92 313.95C479.7 314.366 479.574 314.825 479.55 315.296C479.77 316.342 480.231 317.324 480.895 318.162C481.56 319 482.41 319.672 483.379 320.126C482.955 319.994 482.506 319.961 482.067 320.028C481.628 320.095 481.21 320.261 480.845 320.514C480.479 320.767 480.176 321.099 479.957 321.486C479.739 321.873 479.612 322.304 479.584 322.748C479.584 323.99 481.137 325.439 483.828 326.681C491.697 329.583 500.23 330.182 508.426 328.406C512.741 328.054 517.001 327.209 521.122 325.887L521.985 324.611C535.439 324.881 548.797 322.294 561.177 317.021C584.913 307.602 606.786 290.525 607.993 271.929C608.407 262.58 603.957 255.3 599.886 246.675Z" fill="black"/>
<path d="M497.145 498.283C504.045 528.678 512.911 557.968 521.743 585.396H522.019H562.35C562.557 560.797 562.729 530.196 562.833 498.146H497.283L497.145 498.283Z" fill="black"/>
<path d="M522.226 632.074C500.388 634.765 485.76 623.829 482.414 637.18L482.931 640.354H561.798C561.798 640.354 561.798 634.041 561.971 623.104H561.074C547.205 622.207 534.75 630.522 522.226 632.074Z" fill="black"/>
<path d="M495.04 212.313C500.112 213.831 518.156 180.193 520.329 171.258C520.329 151.144 517.293 133.515 515.602 113.367V113.056C517.009 113.601 518.546 113.718 520.019 113.393C521.492 113.067 522.836 112.314 523.883 111.228C527.333 106.846 521.847 91.4249 513.808 98.3939H513.636C513.636 97.1519 513.429 96.7034 513.222 95.3579V94.6679H512.911C512.911 94.6679 499.422 93.0464 489.727 93.0464C480.654 93.0464 467.095 94.6679 467.095 94.6679C466.728 94.7037 466.359 94.7037 465.992 94.6679V94.9784C465.237 98.6211 464.867 102.333 464.887 106.053C464.887 118.404 478.687 144.9 483.552 146.832C484.151 147.077 484.776 147.251 485.415 147.349C484.068 156.424 481.648 165.307 478.204 173.811C478.722 179.4 489.003 210.45 495.04 212.313Z" fill="black"/>
<path d="M489.9 79.764C496.006 79.764 505.735 80.592 510.393 81.006V80.799C509.48 77.8267 507.939 75.0853 505.874 72.7605C494.006 59.478 479.619 65.688 471.374 80.454V80.868C476.48 80.4195 484.828 79.764 489.9 79.764Z" fill="black"/>
<path d="M484.207 267.892C484.162 268.145 484.173 268.405 484.238 268.653C484.304 268.901 484.423 269.132 484.588 269.329C484.752 269.527 484.958 269.686 485.19 269.795C485.422 269.904 485.676 269.961 485.932 269.962H505.908C506.165 269.961 506.418 269.904 506.65 269.795C506.883 269.686 507.088 269.527 507.253 269.329C507.417 269.132 507.536 268.901 507.602 268.653C507.668 268.405 507.678 268.145 507.633 267.892C507.137 265.147 505.692 262.664 503.552 260.875C501.411 259.087 498.71 258.107 495.92 258.107C493.131 258.107 490.43 259.087 488.289 260.875C486.148 262.664 484.704 265.147 484.207 267.892Z" fill="black"/>
<path d="M456.815 176.433C454.603 177.024 452.472 177.882 450.467 178.986C438.978 185.541 402.856 216.177 402.856 216.177C392.151 201.448 382.908 185.711 375.256 169.188L374.36 169.602L358.214 171.879C359.766 177.157 361.663 183.816 364.044 191.13C372.91 219.42 386.158 256.68 394.128 256.197C408.618 255.058 442.428 236.049 443.635 235.497C443.963 235.317 444.275 235.109 444.567 234.876C448.224 232.185 460.816 219.696 457.746 177.295L456.815 176.433Z" fill="black"/>
<path d="M413.621 554.38C400.373 553.483 388.367 561.798 376.43 563.35C355.35 566.041 341.55 555.105 338.1 568.456V569.802L414 569.457C414 569.457 413.758 563.592 413.448 554.38H413.621Z" fill="black"/>
<path d="M362.457 406.065C356.074 423.936 368.874 478.239 377.706 511.29H412.723C412.447 481.965 413.034 451.157 416.519 444.291C414.035 442.532 390.333 425.834 362.836 405.099C362.698 405.409 362.56 405.754 362.457 406.065Z" fill="black"/>
<path d="M354.625 160.115L370.495 158.493C373.255 146.349 374.36 120.543 370.289 117.093C368.874 115.817 366.838 115.472 366.286 117.611C365.7 115.334 364.768 113.885 363.25 113.885C360.939 113.885 359.8 115.196 359.524 117.749C359.384 117.358 359.155 117.006 358.856 116.718C358.557 116.431 358.195 116.217 357.799 116.093C353.728 115.23 354.798 123.855 354.832 125.96C354.832 132.101 355.35 137.241 354.832 144.107C354.832 142.899 354.522 141.692 354.349 140.657C354.188 139.051 353.781 137.48 353.142 135.999C352.659 135.033 351.486 133.722 350.14 134.378C348.07 135.378 348.312 138.38 348.381 140.036C348.45 144.9 350.554 160.598 354.625 160.115Z" fill="black"/>
<path d="M335.306 159.425C325.542 155.975 320.436 157.941 319.47 158.39C317.987 162.116 316.365 165.876 314.606 169.602C306.91 185.96 297.668 201.544 287.006 216.143C287.006 216.143 253.782 191.441 242.156 185.093C231.806 179.469 214.901 180.159 214.901 180.159C214.681 178.567 214.071 177.054 213.126 175.754C212.182 174.454 210.93 173.407 209.484 172.707L208.725 172.5C197.188 170.268 185.316 170.432 173.846 172.983L173.363 173.225C171.145 174.979 169.618 177.459 169.05 180.228C169.05 180.228 140.829 184.403 132.584 191.199C125.27 197.202 95.427 236.049 90.2865 246.675C86.2155 255.128 81.765 262.58 82.3515 272.033C83.5935 290.973 106.088 308.258 130.203 317.573V317.952C129.306 337.548 128.064 352.452 127.374 365.493H131.1L259.992 365.286H262.787C262.373 344.069 252.92 276.276 246.71 235.428C247.779 235.946 281.727 254.955 296.217 256.128C303.531 256.68 315.399 225.078 324.231 197.72C330.786 177.365 335.651 159.563 335.651 159.563H335.375L335.306 159.425ZM221.18 266.375H205.241L203.102 281.037H203.757C204.121 281.084 204.472 281.202 204.789 281.386C205.107 281.57 205.385 281.815 205.606 282.107C205.828 282.399 205.989 282.733 206.08 283.088C206.171 283.444 206.191 283.814 206.138 284.177L205.448 296.804L205.137 302.255C205.653 302.222 206.17 302.293 206.658 302.464C207.146 302.635 207.595 302.902 207.978 303.25C208.36 303.597 208.67 304.018 208.887 304.487C209.104 304.956 209.225 305.464 209.243 305.981C209.055 307.136 208.602 308.233 207.919 309.185C207.237 310.136 206.344 310.917 205.31 311.466C205.766 311.398 206.231 311.423 206.678 311.538C207.124 311.653 207.543 311.856 207.91 312.136C208.277 312.416 208.584 312.766 208.813 313.167C209.041 313.567 209.188 314.01 209.243 314.468C209.041 315.522 208.587 316.511 207.92 317.352C207.254 318.193 206.393 318.861 205.413 319.298C205.84 319.158 206.294 319.12 206.738 319.186C207.183 319.252 207.606 319.421 207.974 319.679C208.342 319.936 208.645 320.276 208.859 320.671C209.073 321.066 209.193 321.505 209.208 321.954C209.208 323.576 206.862 325.68 202.653 327.129L203.619 327.509L203.205 335.202C203.226 335.873 202.992 336.527 202.551 337.033C202.109 337.538 201.492 337.858 200.825 337.928H184.23C183.562 337.858 182.946 337.538 182.504 337.033C182.062 336.527 181.828 335.873 181.85 335.202L181.47 328.302V327.923C177.445 327.113 173.498 325.958 169.671 324.473H168.671C172.121 321.989 171.051 306.705 171.051 306.705C170.672 305.015 174.743 300.737 179.538 300.392H179.849L179.642 296.114L179.4 290.594C177.713 290.49 176.092 289.902 174.731 288.902C173.369 287.901 172.325 286.529 171.722 284.951C171.119 283.372 170.984 281.653 171.332 280C171.68 278.346 172.497 276.828 173.686 275.626C174.874 274.425 176.383 273.591 178.033 273.225C179.682 272.858 181.402 272.974 182.988 273.56C184.573 274.145 185.956 275.174 186.972 276.525C187.987 277.875 188.593 279.49 188.715 281.175H198.341L201.204 261.924H221.525L221.18 266.375Z" fill="black"/>
<path d="M294.733 618.55C279.726 616.791 260.475 607.614 255.817 607.269H254.817C252.643 607.855 227.596 607.269 227.596 607.269C227.596 607.269 227.596 606.751 227.596 606.406V633.04L307.257 632.695C308.809 623.415 301.978 619.378 294.733 618.55Z" fill="black"/>
<path d="M143.417 617.86C137.034 618.171 136.517 609.684 123.959 603.336L123.372 603.025L100.05 593.745H99.636L88.734 616.066L122.613 632.04L164.393 632.419V631.35C163.358 625.554 154.457 617.343 143.417 617.86Z" fill="black"/>
<path d="M376.568 640.7C396.993 640.7 413.552 624.79 413.552 605.165C413.552 585.539 396.993 569.63 376.568 569.63C356.142 569.63 339.583 585.539 339.583 605.165C339.583 624.79 356.142 640.7 376.568 640.7Z" stroke="black" stroke-width="0.86" stroke-miterlimit="10" stroke-linecap="round"/>
<path d="M338.894 605.095C338.894 605.095 375.671 619.965 412.896 605.095" stroke="black" stroke-width="0.86" stroke-miterlimit="10"/>
<path d="M376.878 569.561V640.665" stroke="black" stroke-width="0.86" stroke-miterlimit="10"/>
<path d="M402.857 580.428C388.125 584.637 383.502 594.228 384.744 611.236" stroke="black" stroke-width="0.86" stroke-miterlimit="10"/>
<path d="M402.029 630.246C390.402 629.28 385.365 622.725 384.779 611.237" stroke="black" stroke-width="0.86" stroke-miterlimit="10"/>
<path d="M349.312 580.428C364.079 584.637 368.667 594.228 367.46 611.236" stroke="black" stroke-width="0.86" stroke-miterlimit="10"/>
<path d="M350.175 630.246C361.801 629.28 366.838 622.725 367.425 611.237" stroke="black" stroke-width="0.86" stroke-miterlimit="10"/>
<path d="M227.562 639.63H307.43V633.075H227.562V639.63Z" stroke="black" stroke-width="0.86" stroke-linecap="round" stroke-linejoin="round"/>
<path d="M482.448 393.3C484.932 470.2 508.357 545.376 529.299 608.752C529.299 608.752 509.185 617.722 494.143 619.516C486.933 620.344 480.067 624.381 481.758 633.592L482.862 640.492H561.729C561.729 640.492 563.661 464.542 562.246 364.492" stroke="black" stroke-width="0.86" stroke-miterlimit="10"/>
<path d="M428.973 364.527C408.549 373.048 366.873 393.714 362.457 405.927C353.073 432.25 385.227 537.717 385.227 537.717C379.052 539.373 364.769 546.618 349.726 548.377C342.481 549.24 335.65 553.242 337.341 562.488L338.307 569.664L414.207 569.319C414.207 569.319 409.17 449.983 417.312 443.049C432.699 429.904 459.92 421.728 483.656 422.349" stroke="black" stroke-width="0.86" stroke-miterlimit="10"/>
<path d="M130.031 317.952C129.134 337.548 127.892 352.452 127.202 365.493L262.648 365.252C262.2 340.205 249.09 250.297 243.605 216.349" stroke="black" stroke-width="0.86" stroke-linecap="round" stroke-linejoin="round"/>
<path d="M123.993 603.302C133.066 595.884 202.273 475.203 217.315 393.473" stroke="black" stroke-width="0.86" stroke-miterlimit="10" stroke-linecap="round"/>
<path d="M131.1 365.7C126.96 444.567 100.05 593.4 100.05 593.4" stroke="black" stroke-width="0.86" stroke-miterlimit="10" stroke-linecap="round"/>
<path d="M200.1 452.571C206.586 487.761 225.63 595.711 227.459 607.234C227.459 607.234 254.507 607.786 254.817 607.234C259.371 597.298 262.511 491.901 259.716 366.528" stroke="black" stroke-width="0.86" stroke-miterlimit="10" stroke-linecap="round"/>
<path d="M154.457 384.709C151.007 403.305 132.549 408.859 115.609 405.996" stroke="black" stroke-width="0.86" stroke-miterlimit="10" stroke-linecap="round"/>
<path d="M255.818 607.2C260.475 607.545 279.726 616.722 294.734 618.481C301.979 619.309 308.809 623.346 307.153 632.592L227.493 632.937" stroke="black" stroke-width="0.86" stroke-linecap="round" stroke-linejoin="round"/>
<path d="M227.458 606.372V632.42" stroke="black" stroke-width="0.86" stroke-miterlimit="10"/>
<path d="M84.9045 622.932L120.957 639.147L164.289 638.802V632.247L122.475 631.868L88.596 615.894L84.9045 622.932Z" stroke="black" stroke-width="0.86" stroke-linecap="round" stroke-linejoin="round"/>
<path d="M164.255 631.35C163.358 625.45 154.457 617.239 143.555 617.757C137.069 618.067 136.655 609.304 123.51 602.922L99.636 593.469L88.734 615.79" stroke="black" stroke-width="0.86" stroke-linecap="round" stroke-linejoin="round"/>
<path d="M176.26 98.2561C177.33 90.4246 178.744 78.8326 184.195 72.7606C201.652 53.2336 221.938 93.0121 225.181 105.812C228.252 117.749 211.381 144.659 206.551 146.591C199.237 149.489 188.853 142.623 185.576 135.827" stroke="black" stroke-width="0.86" stroke-miterlimit="10" stroke-linecap="round"/>
<path d="M173.776 172.741C173.776 152.283 172.672 133.756 174.397 113.367" stroke="black" stroke-width="0.86" stroke-miterlimit="10"/>
<path d="M204.551 146.245C205.551 155.043 206.69 165.289 210.105 172.707" stroke="black" stroke-width="0.86" stroke-miterlimit="10"/>
<path d="M179.055 101.844C169.429 87.63 162.288 106.329 166.014 111.228C168.394 114.367 173.5 113.781 176.364 112.297" stroke="black" stroke-width="0.86" stroke-miterlimit="10" stroke-linecap="round"/>
<path d="M213.382 81.6616C214.555 81.6616 242.224 76.1416 238.326 68.5516C233.91 59.8576 180.538 87.2851 177.261 88.7341" stroke="black" stroke-width="0.86" stroke-miterlimit="10"/>
<path d="M197.788 103.5C196.373 103.069 194.876 102.979 193.419 103.236C191.962 103.494 190.586 104.093 189.405 104.984" stroke="black" stroke-width="0.86" stroke-miterlimit="10" stroke-linecap="round"/>
<path d="M174.57 104.638C173.092 106.085 171.117 106.912 169.05 106.95" stroke="black" stroke-width="0.86" stroke-miterlimit="10" stroke-linecap="round"/>
<path d="M195.132 112.608C195.932 112.608 196.581 111.959 196.581 111.159C196.581 110.359 195.932 109.71 195.132 109.71C194.332 109.71 193.683 110.359 193.683 111.159C193.683 111.959 194.332 112.608 195.132 112.608Z" fill="black"/>
<path d="M214.107 112.125C214.907 112.125 215.556 111.476 215.556 110.676C215.556 109.876 214.907 109.227 214.107 109.227C213.307 109.227 212.658 109.876 212.658 110.676C212.658 111.476 213.307 112.125 214.107 112.125Z" fill="black"/>
<path d="M216.522 103.88C214.245 102.845 209.07 103.155 208.139 105.398C206.69 108.848 208.897 116.507 209.829 120.819C210.45 123.752 211.519 129.479 206.379 127.926" stroke="black" stroke-width="0.86" stroke-miterlimit="10" stroke-linecap="round"/>
<path d="M319.505 158.424C311.032 178.877 300.182 198.261 287.178 216.177C287.178 216.177 253.955 191.475 242.328 185.127C231.978 179.503 215.073 180.193 215.073 180.193C214.814 178.46 214.091 176.829 212.979 175.475C211.867 174.12 210.409 173.092 208.76 172.5C197.168 169.326 175.985 171.603 173.363 173.224C171.145 174.978 169.618 177.459 169.05 180.228C169.05 180.228 140.829 184.402 132.584 191.199C125.27 197.202 95.4615 236.049 90.2865 246.675C86.2155 255.127 81.765 262.579 82.3515 272.032C84.249 301.323 137.034 326.68 168.05 324.645C172.328 324.369 171.293 306.567 171.293 306.567C160.046 303.841 114.092 282.417 120.578 271.549C132.794 255.065 146.666 239.875 161.978 226.216" stroke="black" stroke-width="0.86" stroke-linejoin="round"/>
<path d="M335.444 143.9C335.099 137 335.064 132.032 335.202 125.891C335.202 123.786 336.306 115.161 332.235 116.024C328.164 116.886 329.268 135.792 329.337 138.725" stroke="black" stroke-width="0.86" stroke-linecap="round" stroke-linejoin="round"/>
<path d="M330.441 117.645C330.061 115.092 329.026 113.746 326.715 113.781C321.609 113.781 322.851 131.031 322.748 138.897" stroke="black" stroke-width="0.86" stroke-linecap="round" stroke-linejoin="round"/>
<path d="M335.444 159.459C339.515 159.942 341.826 143.934 342.033 139.001C342.033 137.379 342.309 134.378 340.273 133.377C338.893 132.722 337.72 133.998 337.237 134.964C336.603 136.447 336.196 138.017 336.03 139.622C335.754 141.692 335.374 144.176 335.133 146.246" stroke="black" stroke-width="0.86" stroke-linecap="round" stroke-linejoin="round"/>
<path d="M323.541 117.473C323.162 115.334 320.954 115.679 319.539 116.955C315.468 120.612 316.572 146.349 319.332 158.355C319.332 158.355 324.438 155.423 335.306 159.287" stroke="black" stroke-width="0.86" stroke-linecap="round" stroke-linejoin="round"/>
<path d="M246.641 235.394C247.71 235.911 281.658 254.886 296.148 256.094C308.947 257.129 335.581 159.494 335.581 159.494" stroke="black" stroke-width="0.86" stroke-miterlimit="10"/>
<path d="M198.858 281.175H181.332C180.966 281.217 180.613 281.333 180.293 281.515C179.973 281.697 179.693 281.943 179.471 282.236C179.248 282.529 179.088 282.865 178.998 283.222C178.909 283.579 178.893 283.951 178.951 284.315L180.021 304.566" stroke="black" stroke-width="0.86" stroke-miterlimit="10"/>
<path d="M205.103 303.186L206.138 284.315C206.191 283.952 206.171 283.582 206.08 283.226C205.989 282.871 205.828 282.537 205.606 282.245C205.385 281.953 205.107 281.708 204.789 281.524C204.472 281.34 204.121 281.222 203.757 281.175H202.411" stroke="black" stroke-width="0.86" stroke-miterlimit="10"/>
<path d="M181.47 328.336L181.85 335.236C181.828 335.908 182.062 336.562 182.504 337.067C182.946 337.573 183.562 337.893 184.23 337.962H200.963C201.633 337.901 202.255 337.583 202.698 337.076C203.142 336.568 203.372 335.91 203.343 335.236L203.757 327.75" stroke="black" stroke-width="0.86" stroke-miterlimit="10"/>
<path d="M179.987 304.152C181.953 309.707 192.131 308.775 196.547 308.016C198.168 307.74 205.931 304.566 205.137 302.427" stroke="black" stroke-width="0.86" stroke-miterlimit="10"/>
<path d="M205.241 302.392C205.756 302.36 206.274 302.431 206.762 302.602C207.25 302.773 207.698 303.04 208.081 303.387C208.464 303.735 208.773 304.156 208.99 304.625C209.208 305.094 209.329 305.602 209.346 306.118C209.07 311.362 199.479 316.089 189.026 314.467" stroke="black" stroke-width="0.86" stroke-miterlimit="10" stroke-linecap="round"/>
<path d="M205.413 311.604C205.869 311.536 206.334 311.56 206.781 311.675C207.228 311.791 207.647 311.994 208.014 312.274C208.38 312.554 208.687 312.904 208.916 313.305C209.145 313.705 209.291 314.147 209.346 314.605C209.07 319.194 199.824 323.437 189.37 322.023" stroke="black" stroke-width="0.86" stroke-miterlimit="10" stroke-linecap="round"/>
<path d="M205.551 319.504C205.978 319.365 206.432 319.327 206.876 319.393C207.321 319.459 207.744 319.628 208.112 319.885C208.48 320.143 208.783 320.483 208.997 320.878C209.211 321.273 209.331 321.712 209.346 322.161C209.346 326.404 193.648 333.822 169.74 324.472" stroke="black" stroke-width="0.86" stroke-miterlimit="10" stroke-linecap="round"/>
<path d="M171.017 306.705C170.361 305.084 174.467 300.598 179.469 300.219" stroke="black" stroke-width="0.86" stroke-miterlimit="10" stroke-linecap="round"/>
<path d="M518.811 307.36C519.57 305.773 514.844 301.254 509.255 300.909" stroke="black" stroke-width="0.86" stroke-miterlimit="10" stroke-linecap="round"/>
<path d="M179.779 295.906C187.818 292.698 189.094 302.151 199.755 301.185C200.969 300.982 202.116 300.49 203.101 299.752C204.085 299.014 204.878 298.05 205.413 296.941" stroke="black" stroke-width="0.86" stroke-miterlimit="10" stroke-linecap="round"/>
<path d="M200.203 300.84L205.24 266.512L221.179 266.443L221.524 261.924H201.204L195.477 300.426" stroke="black" stroke-width="0.86" stroke-linecap="round" stroke-linejoin="round"/>
<path d="M561.281 317.849C562.592 339.273 563.799 358.938 564.144 364.976L428.697 364.734C429.18 339.687 439.254 268.79 444.774 234.842" stroke="black" stroke-width="0.86" stroke-linecap="round" stroke-linejoin="round"/>
<path d="M557.555 253.989C557.865 260.372 558.59 271.895 559.452 286.385" stroke="black" stroke-width="0.86" stroke-linecap="round" stroke-linejoin="round"/>
<path d="M510.324 80.799C509.411 77.8267 507.87 75.0853 505.805 72.7605C493.937 59.478 479.55 65.688 471.305 80.454" stroke="black" stroke-width="0.86" stroke-miterlimit="10" stroke-linecap="round"/>
<path d="M513.74 98.256C513.74 97.014 513.533 96.5655 513.326 95.22" stroke="black" stroke-width="0.86" stroke-miterlimit="10" stroke-linecap="round"/>
<path d="M520.329 171.983C520.329 151.524 517.327 133.757 515.602 113.333" stroke="black" stroke-width="0.86" stroke-miterlimit="10"/>
<path d="M511.29 101.395C521.019 86.0084 528.16 106.225 524.434 111.504C523.134 112.902 521.378 113.791 519.482 114.012C517.585 114.233 515.672 113.772 514.084 112.711" stroke="white" stroke-width="0.62" stroke-miterlimit="10" stroke-linecap="round"/>
<path d="M492.211 103.5C493.627 103.069 495.124 102.979 496.581 103.236C498.038 103.494 499.414 104.093 500.595 104.984" stroke="white" stroke-width="0.62" stroke-miterlimit="10" stroke-linecap="round"/>
<path d="M515.43 104.638C516.908 106.085 518.883 106.912 520.95 106.95" stroke="white" stroke-width="0.62" stroke-miterlimit="10" stroke-linecap="round"/>
<path d="M494.868 112.608C495.668 112.608 496.317 111.959 496.317 111.159C496.317 110.359 495.668 109.71 494.868 109.71C494.068 109.71 493.419 110.359 493.419 111.159C493.419 111.959 494.068 112.608 494.868 112.608Z" fill="white"/>
<path d="M476.928 112.125C477.728 112.125 478.377 111.476 478.377 110.676C478.377 109.876 477.728 109.227 476.928 109.227C476.128 109.227 475.479 109.876 475.479 110.676C475.479 111.476 476.128 112.125 476.928 112.125Z" fill="white"/>
<path d="M474.513 103.88C476.79 102.845 481.931 103.155 482.862 105.398C484.346 108.848 478.687 120.095 477.721 124.407C477.1 127.34 481.965 126.995 484.932 126.65" stroke="white" stroke-width="0.62" stroke-miterlimit="10" stroke-linecap="round"/>
<path d="M496.145 130.479C493.557 139.139 482.345 139.242 480.137 133.481" stroke="white" stroke-width="0.62" stroke-miterlimit="10" stroke-linecap="round"/>
<path d="M354.66 140.932C354.66 133.584 354.66 131.824 354.419 125.545C354.419 123.372 353.28 114.574 357.558 115.437C362.353 116.403 361.008 135.654 360.732 138.655" stroke="white" stroke-width="0.62" stroke-linecap="round" stroke-linejoin="round"/>
<path d="M359.352 116.61C359.347 116.113 359.45 115.621 359.652 115.168C359.855 114.714 360.153 114.31 360.527 113.982C360.9 113.655 361.34 113.412 361.816 113.27C362.292 113.128 362.793 113.09 363.285 113.16C368.943 113.16 367.736 129.961 367.529 138.276" stroke="white" stroke-width="0.62" stroke-linecap="round" stroke-linejoin="round"/>
<path d="M457.47 177.192C460.92 226.596 443.359 235.393 443.359 235.393C442.29 235.911 408.342 254.886 393.852 256.093C381.053 257.128 354.66 160.183 354.66 160.183" stroke="black" stroke-width="0.86" stroke-linecap="round" stroke-linejoin="round"/>
<path d="M416.243 444.187C416.243 444.187 391.817 426.937 362.595 404.892" stroke="black" stroke-width="0.86" stroke-miterlimit="10"/>
<path d="M563.282 498.076C563.282 498.076 533.646 498.076 497.317 497.283" stroke="black" stroke-width="0.86" stroke-miterlimit="10"/>
<path d="M179.918 290.628C178.178 290.628 176.477 290.112 175.03 289.145C173.583 288.179 172.456 286.805 171.79 285.197C171.124 283.59 170.95 281.821 171.289 280.114C171.628 278.408 172.466 276.84 173.697 275.61C174.927 274.379 176.495 273.541 178.201 273.202C179.908 272.863 181.677 273.037 183.284 273.703C184.892 274.368 186.266 275.496 187.232 276.943C188.199 278.39 188.715 280.09 188.715 281.83" stroke="black" stroke-width="0.86" stroke-linejoin="round"/>
<path d="M518.776 307.671C530.023 304.946 576.081 282.486 569.595 271.55C563.972 263.097 532.749 228.149 543.513 178.4" stroke="black" stroke-width="0.86" stroke-linecap="round" stroke-linejoin="round"/>
<path d="M370.254 157.872C378.815 178.503 389.744 198.069 402.822 216.177C402.822 216.177 438.978 185.541 450.432 178.986C459.264 173.949 478.411 173.362 478.411 173.362C479.481 178.641 488.969 210.484 495.041 212.313C500.147 213.831 518.19 180.159 520.329 171.258C520.329 171.258 545.997 176.329 554.277 183.126C561.557 189.094 594.711 236.049 599.886 246.675C603.957 255.127 608.407 262.579 607.821 272.032C605.923 301.323 552.828 326.749 521.812 324.714" stroke="black" stroke-width="0.86" stroke-linecap="round" stroke-linejoin="round"/>
<path d="M374.187 169.429L358.041 171.706" stroke="black" stroke-width="0.86" stroke-linecap="round" stroke-linejoin="round"/>
<path d="M522.019 585.292H561.28" stroke="black" stroke-width="0.86" stroke-linecap="round" stroke-linejoin="round"/>
<path d="M377.706 511.29H411.999" stroke="black" stroke-width="0.86" stroke-linecap="round" stroke-linejoin="round"/>
<path d="M482.414 637.18C485.864 623.829 500.388 634.765 522.226 632.074C534.681 630.556 547.205 622.207 561.005 623.139" stroke="black" stroke-width="0.86" stroke-miterlimit="10"/>
<path d="M338.1 568.422C341.274 555.105 355.35 566.041 376.292 563.35C388.229 561.798 400.234 553.483 413.482 554.38" stroke="black" stroke-width="0.86" stroke-miterlimit="10"/>
<path d="M508.323 328.785V332.028C508.323 333.858 507.596 335.613 506.302 336.907C505.008 338.201 503.253 338.928 501.423 338.928H490.383C488.553 338.928 486.798 338.201 485.504 336.907C484.21 335.613 483.483 333.858 483.483 332.028V327.094" stroke="black" stroke-width="0.86" stroke-miterlimit="10" stroke-linecap="round"/>
<path d="M483.517 303.6V277.035C483.517 275.205 484.244 273.45 485.538 272.156C486.832 270.862 488.587 270.135 490.417 270.135H501.458C503.288 270.135 505.043 270.862 506.337 272.156C507.631 273.45 508.358 275.205 508.358 277.035V304.635" stroke="black" stroke-width="0.86" stroke-miterlimit="10" stroke-linecap="round"/>
<path d="M505.908 269.962C506.165 269.961 506.418 269.904 506.65 269.795C506.883 269.686 507.088 269.527 507.253 269.329C507.417 269.132 507.536 268.901 507.602 268.653C507.668 268.405 507.678 268.145 507.633 267.892C507.137 265.147 505.692 262.664 503.552 260.875C501.411 259.087 498.71 258.107 495.92 258.107C493.131 258.107 490.43 259.087 488.289 260.875C486.148 262.664 484.704 265.147 484.207 267.892C484.162 268.145 484.173 268.405 484.238 268.653C484.304 268.901 484.423 269.132 484.588 269.329C484.752 269.527 484.958 269.686 485.19 269.795C485.422 269.904 485.676 269.961 485.932 269.962H505.908Z" stroke="black" stroke-width="0.86" stroke-miterlimit="10" stroke-linecap="round"/>
<path d="M354.798 146.728C354.827 144.425 354.735 142.122 354.522 139.828C354.318 138.156 353.852 136.526 353.142 134.999C352.625 133.998 351.314 132.653 349.692 133.343C347.381 134.412 347.587 137.517 347.656 139.242C347.656 143.21 347.657 154.663 352.659 161.322" stroke="white" stroke-width="0.62" stroke-linecap="round" stroke-linejoin="round"/>
<path d="M372.014 157.458C374.877 145.245 375.015 119.887 370.737 116.058C369.254 114.781 366.528 114.643 366.769 116.61" stroke="white" stroke-width="0.62" stroke-linecap="square" stroke-linejoin="round"/>
<path d="M482.517 312.501C482.063 312.317 481.568 312.257 481.084 312.328C480.599 312.398 480.142 312.596 479.759 312.902C479.376 313.207 479.082 313.609 478.905 314.066C478.729 314.523 478.678 315.019 478.757 315.503C479.067 320.367 488.555 324.542 499.457 323.162" stroke="white" stroke-width="0.62" stroke-miterlimit="10" stroke-linecap="round"/>
<path d="M483 320.85C479.55 319.159 478.55 321.574 478.895 322.954C480.102 327.474 491.694 335.374 520.088 326.404C520.088 326.404 523.538 327.129 524.262 327.163" stroke="white" stroke-width="0.62" stroke-miterlimit="10" stroke-linecap="square"/>
<path d="M507.495 305.049C505.011 309.5 497.421 308.982 492.211 308.223C489.08 307.168 486.143 305.606 483.517 303.6C483.163 303.372 482.763 303.225 482.345 303.172C481.927 303.118 481.503 303.158 481.102 303.29C480.356 303.498 479.702 303.952 479.245 304.578C478.788 305.204 478.555 305.965 478.584 306.74C478.86 312.018 488.934 317.435 499.767 315.779" stroke="white" stroke-width="0.62" stroke-miterlimit="10" stroke-linecap="round"/>
<path d="M465.474 95.1509C464.719 98.7935 464.349 102.505 464.37 106.225C464.37 118.507 478.17 144.969 483.069 146.901C490.383 149.799 500.767 142.933 504.079 136.137" stroke="white" stroke-width="0.62" stroke-miterlimit="10" stroke-linecap="round"/>
<path d="M485.242 147.177C483.172 154.871 478.342 170.292 478.342 172.155" stroke="white" stroke-width="0.86" stroke-miterlimit="10"/>
<path d="M512.946 94.5644C512.946 94.5644 499.456 92.9429 489.762 92.9429C480.688 92.9429 467.13 94.5644 467.13 94.5644C466.49 94.5738 465.855 94.4542 465.262 94.2126C464.67 93.971 464.132 93.6125 463.681 93.1584C463.23 92.7044 462.876 92.1641 462.638 91.5698C462.401 90.9756 462.286 90.3396 462.3 89.6999V85.9049C462.3 84.6422 462.802 83.4312 463.694 82.5384C464.587 81.6455 465.798 81.1439 467.061 81.1439C467.061 81.1439 482.241 79.6604 489.762 79.6604C497.973 79.6604 512.877 81.1439 512.877 81.1439C514.14 81.1439 515.351 81.6455 516.243 82.5384C517.136 83.4312 517.638 84.6422 517.638 85.9049V89.6999C517.652 90.328 517.541 90.9526 517.312 91.5378C517.083 92.1229 516.741 92.6569 516.305 93.1091C515.869 93.5613 515.347 93.9227 514.771 94.1725C514.194 94.4222 513.574 94.5554 512.946 94.5644Z" stroke="black" stroke-width="0.86" stroke-linecap="round" stroke-linejoin="round"/>
<path d="M472.65 174.26C472.65 174.26 483.828 218.178 494.661 218.075C506.529 218.075 518.259 191.958 525.193 173.466" stroke="black" stroke-width="0.86" stroke-miterlimit="10" stroke-linecap="round"/>
<path d="M537.717 175.95C534.223 191.053 534.209 206.753 537.676 221.863C541.142 236.972 547.999 251.096 557.727 263.166" stroke="black" stroke-width="0.86" stroke-miterlimit="10" stroke-linecap="round"/>
<path d="M462.3 175.501C462.3 175.501 468.303 225.319 444.084 242.707" stroke="black" stroke-width="0.86" stroke-miterlimit="10" stroke-linecap="round"/>
<path d="M535.371 365.148V497.835" stroke="black" stroke-width="0.86" stroke-miterlimit="10" stroke-linecap="round"/>
<path d="M543.755 365.148V497.835" stroke="black" stroke-width="0.86" stroke-miterlimit="10" stroke-linecap="round"/>
<path d="M127.65 319.401C140.563 323.866 154.251 325.651 167.877 324.645C172.155 324.369 171.12 306.567 171.12 306.567C159.873 303.842 113.919 282.417 120.405 271.55C132.621 255.065 146.494 239.875 161.805 226.217" stroke="white" stroke-width="0.86" stroke-linejoin="round"/>
<path d="M201.997 140.553C195.097 140.312 192.234 129.789 193.959 131.204C196.456 132.531 199.229 133.257 202.056 133.323C204.883 133.389 207.687 132.793 210.243 131.583C212.14 130.548 207.586 140.795 201.997 140.553Z" stroke="black" stroke-width="0.86" stroke-miterlimit="10"/>
<path d="M314.605 168.429L285.108 182.643L297.252 152.697L272.24 139.76L306.118 124.131L277.207 97.014L315.537 103.5L302.427 62.1L334.65 91.218L346 49.3005L357.351 91.218L381.915 74.5545L376.464 103.5L419.313 96.393L385.882 124.131L410.136 138.138L382.674 146.625L406.893 182.643L376.395 167.877" stroke="black" stroke-width="0.86" stroke-linecap="round" stroke-linejoin="round"/>
<path d="M363.872 190.164L361.319 196.719L345.207 176.398L324.542 206.241L324.68 196.719" stroke="black" stroke-width="0.86" stroke-linecap="round" stroke-linejoin="round"/>
<path d="M496.938 252.126H494.558C493.433 252.126 492.522 253.03 492.522 254.144C492.522 255.259 493.433 256.162 494.558 256.162H496.938C498.062 256.162 498.974 255.259 498.974 254.144C498.974 253.03 498.062 252.126 496.938 252.126Z" fill="black"/>
<path d="M493.764 255.059V257.819C493.764 257.99 493.903 258.129 494.074 258.129H497.49C497.661 258.129 497.8 257.99 497.8 257.819V255.059C497.8 254.887 497.661 254.748 497.49 254.748H494.074C493.903 254.748 493.764 254.887 493.764 255.059Z" fill="black"/>
</svg>
